<svg width="333" height="20" viewBox="0 0 333 20" fill="none" xmlns="http://www.w3.org/2000/svg">
<path d="M327.5 0.747562L327.5 1.24756L327.5 0.747562ZM332.5 5.74756L332 5.74756L332 5.74756L332.5 5.74756ZM332.5 11.2476L333 11.2476L333 11.2475L332.5 11.2476ZM327.5 16.2475L327.5 16.7475L327.5 16.2475ZM151.646 15.8939C151.451 16.0892 151.451 16.4058 151.646 16.6011L154.828 19.783C155.023 19.9783 155.34 19.9783 155.535 19.783C155.73 19.5878 155.73 19.2712 155.535 19.0759L152.707 16.2475L155.535 13.4191C155.73 13.2238 155.73 12.9072 155.535 12.712C155.34 12.5167 155.023 12.5167 154.828 12.712L151.646 15.8939ZM-0.00035056 1.24756L327.5 1.24756L327.5 0.247561L-0.000350539 0.247557L-0.00035056 1.24756ZM332 5.74756L332 11.2476L333 11.2475L333 5.74755L332 5.74756ZM327.5 15.7475L152 15.7475L152 16.7475L327.5 16.7475L327.5 15.7475ZM332 11.2475C332 13.7328 329.985 15.7475 327.5 15.7475L327.5 16.7475C330.537 16.7475 333 14.2851 333 11.2476L332 11.2475ZM327.5 1.24756C329.985 1.24756 332 3.26228 332 5.74756L333 5.74756C333 2.70999 330.537 0.247562 327.5 0.247561L327.5 1.24756Z" fill="#2B2A28"/>
</svg>
