<svg width="172" height="149" viewBox="0 0 172 149" fill="none" xmlns="http://www.w3.org/2000/svg">
<g clip-path="url(#clip0_17_747)">
<path d="M64.3148 127.337L34.1015 73.4995" stroke="#2B2A28" stroke-width="0.754894" stroke-miterlimit="10" stroke-dasharray="3.2 3.2"/>
<path d="M32.2498 73.3728L2.15277 90.7114" stroke="#2B2A28" stroke-width="0.754894" stroke-miterlimit="10" stroke-dasharray="3.2 3.2"/>
<path d="M65.0913 127.16L65.3449 106.976" stroke="#2B2A28" stroke-width="0.754894" stroke-miterlimit="10" stroke-dasharray="3.2 3.2"/>
<path d="M117.081 123.636L117.086 123.121M52.8613 122.311L53.3764 122.316" stroke="#2B2A28" stroke-width="0.754894" stroke-miterlimit="10"/>
<path d="M1.75659 91.2869L62.5238 91.8808" stroke="#2B2A28" stroke-width="0.754894" stroke-miterlimit="10" stroke-dasharray="3.2 3.2"/>
<path d="M64.7717 93.0741L32.7464 147.144" stroke="#2B2A28" stroke-width="0.754894" stroke-miterlimit="10" stroke-dasharray="3.2 3.2"/>
<path d="M3.01392 127.197L64.6766 92.2425" stroke="#2B2A28" stroke-width="0.754894" stroke-miterlimit="10" stroke-dasharray="3.2 3.2"/>
<path d="M116.724 123.073L117.171 122.82M66.1611 32.1909L66.4121 32.6397" stroke="#2B2A28" stroke-width="0.754894" stroke-miterlimit="10"/>
<path d="M66.9246 32.6688L117.086 123.121" stroke="#2B2A28" stroke-width="0.754894" stroke-miterlimit="10" stroke-dasharray="3.2 3.2"/>
<path d="M117.089 122.992L169.565 93.0582" stroke="#2B2A28" stroke-width="0.754894" stroke-miterlimit="10" stroke-dasharray="3.2 3.2"/>
<path d="M171.181 31.6049L120.364 1.5105" stroke="#2B2A28" stroke-width="0.754894" stroke-miterlimit="10" stroke-dasharray="3.2 3.2"/>
<path d="M66.1532 32.8668L65.6302 77.3484" stroke="#2B2A28" stroke-width="0.754894" stroke-miterlimit="10" stroke-dasharray="3.2 3.2"/>
<path d="M168.907 92.5382L87.1134 91.9072" stroke="#2B2A28" stroke-width="0.754894" stroke-miterlimit="10" stroke-dasharray="3.2 3.2"/>
<path d="M65.4453 129.166L33.0211 147.767" stroke="#2B2A28" stroke-width="0.754894" stroke-miterlimit="10" stroke-dasharray="3.2 3.2"/>
<path d="M66.1532 90.3814L118.951 1.86157" stroke="#2B2A28" stroke-width="0.754894" stroke-miterlimit="10" stroke-dasharray="3.2 3.2"/>
<path d="M170.967 31.8134L66.2589 91.2024" stroke="#2B2A28" stroke-width="0.754894" stroke-miterlimit="10" stroke-dasharray="3.2 3.2"/>
<path d="M118.145 1.73486L66.214 30.9344" stroke="#2B2A28" stroke-width="0.754894" stroke-miterlimit="10" stroke-dasharray="3.2 3.2"/>
<path d="M1.24148 92.7652L0.895447 127.102" stroke="#2B2A28" stroke-width="0.754894" stroke-miterlimit="10" stroke-dasharray="3.2 3.2"/>
<path d="M1.66937 128.923L31.946 148.128" stroke="#2B2A28" stroke-width="0.754894" stroke-miterlimit="10" stroke-dasharray="3.2 3.2"/>
<path d="M1.67999 127.955L2.1264 127.698" stroke="#2B2A28" stroke-width="0.754894" stroke-miterlimit="10"/>
<path fill-rule="evenodd" clip-rule="evenodd" d="M171.807 31.2565L171.81 31.2591V31.2644L171.82 31.2696L171.823 31.2749L171.834 31.2802V31.2855L171.839 31.2934L171.849 31.304L171.852 31.3066L171.855 31.3092L171.863 31.3172V31.3224L171.876 31.3304C171.955 31.4386 172.003 31.5812 172 31.729L171.968 34.5985C171.966 34.9602 171.672 35.2506 171.308 35.2453C170.949 35.24 170.658 34.9443 170.661 34.5827L170.687 32.088L168.54 30.8182C168.228 30.6361 168.125 30.2322 168.31 29.9207C168.489 29.6092 168.894 29.5036 169.205 29.691L171.665 31.1456L171.81 31.2512L171.807 31.2565Z" fill="#2B2A28"/>
<path fill-rule="evenodd" clip-rule="evenodd" d="M171.303 93.2166V93.214L171.305 93.2113L171.311 93.206L171.321 93.2008L171.324 93.1928L171.329 93.1876L171.332 93.1823L171.342 93.1717V93.1691L171.345 93.1638L171.355 93.1559L171.361 93.1532L171.363 93.14C171.445 93.0318 171.498 92.8945 171.495 92.7441L171.488 89.8719C171.488 89.5129 171.194 89.2225 170.827 89.2198C170.465 89.2198 170.172 89.5155 170.172 89.8798L170.18 92.3718L168.025 93.6231C167.713 93.8053 167.607 94.2065 167.789 94.5181C167.964 94.8322 168.368 94.9378 168.68 94.7609L171.149 93.3248L171.3 93.2166H171.303Z" fill="#2B2A28"/>
<path fill-rule="evenodd" clip-rule="evenodd" d="M118.785 0.0427214L118.787 0.0400815H118.795L118.806 0.0374416H118.819L118.83 0.0268822H118.843H118.856L118.869 0.0242423H118.874L118.885 0.0189626L118.898 0.0136829H118.911H118.925V0.00840316C119.112 -0.0153556 119.321 0.0163228 119.501 0.119277L123.03 2.07013C123.471 2.31564 123.634 2.87529 123.389 3.31879C123.143 3.76229 122.583 3.92332 122.137 3.67781L119.075 1.98038L116.075 3.78868C115.639 4.04739 115.073 3.91012 114.812 3.47454C114.548 3.0416 114.688 2.47403 115.126 2.21533L118.555 0.150956L118.79 0.0427214H118.785Z" fill="#2B2A28"/>
<path fill-rule="evenodd" clip-rule="evenodd" d="M0.562601 90.3365L0.55996 90.3392L0.552035 90.3445L0.541469 90.3497L0.538828 90.355L0.533545 90.3629L0.530903 90.3682L0.52562 90.3761L0.515054 90.3867L0.509771 90.3893V90.3946L0.504489 90.4025L0.499206 90.4078L0.493923 90.421C0.401471 90.5345 0.343358 90.6824 0.335434 90.846L0.272038 93.9795C0.266755 94.3729 0.581091 94.7029 0.972031 94.7108C1.36825 94.7187 1.6958 94.4019 1.70372 94.0112L1.75919 91.2895L4.14445 89.9775C4.49048 89.7901 4.61727 89.3545 4.42709 89.0087C4.23954 88.6629 3.80634 88.5335 3.45766 88.7236L0.726373 90.2257L0.567884 90.3365H0.562601Z" fill="#2B2A28"/>
<path fill-rule="evenodd" clip-rule="evenodd" d="M33.2113 74.5739C32.2155 74.3627 31.5815 73.386 31.7902 72.3907C32.0015 71.3982 32.9842 70.7619 33.9774 70.9758C34.9732 71.187 35.6098 72.1664 35.3985 73.1589C35.1872 74.1515 34.2045 74.7877 33.2113 74.5739Z" fill="#2B2A28"/>
<path fill-rule="evenodd" clip-rule="evenodd" d="M0.22715 129.193L0.221867 129.185L0.216584 129.179L0.211301 129.174L0.203377 129.166L0.198094 129.161L0.192811 129.156L0.184887 129.142L0.179604 129.14V129.137L0.171679 129.127L0.169038 129.121L0.158472 129.111C0.071303 128.992 0.0131904 128.842 0.010549 128.678L0.00262451 125.547C0.00262451 125.151 0.322244 124.829 0.715824 124.826C1.11205 124.826 1.42902 125.146 1.43431 125.542L1.44223 128.261L3.80107 129.618C4.14711 129.813 4.26333 130.249 4.06786 130.592C3.87239 130.935 3.43391 131.051 3.09052 130.858L0.385639 129.306L0.22715 129.193Z" fill="#2B2A28"/>
<path fill-rule="evenodd" clip-rule="evenodd" d="M65.2366 82.7416C65.3582 80.9254 65.4823 79.1937 65.5959 77.5886L65.757 77.6942C65.7887 79.2227 65.7887 80.87 65.8997 82.5938C66.3936 90.0752 66.4861 90.3576 73.6683 91.3133C77.1946 91.7832 81.7433 91.7277 85.3647 91.8544L85.547 91.9943C83.8247 92.0207 82.0999 92.0392 80.3723 92.0656C76.8486 92.1237 73.3249 92.3164 69.8407 92.7889C67.6589 93.3829 66.8321 95.0328 66.3434 96.5428C65.3925 99.4757 65.5166 102.002 65.3766 105.017L65.0782 105.294C64.9302 102.43 65.0729 99.019 64.4785 96.2419C63.4484 91.4505 60.2733 92.2161 53.8334 91.7673V91.6776C57.4628 91.6063 58.1575 91.6512 60.2944 91.3793C65.1521 90.7747 64.9566 86.6909 65.234 82.7443L65.2366 82.7416Z" fill="#2B2A28"/>
<path fill-rule="evenodd" clip-rule="evenodd" d="M65.6645 30.5569V30.5542V30.549V30.541L65.6698 30.5331V30.5278L65.6725 30.5173L65.6751 30.512L65.6804 30.4962L65.683 30.4882L65.6857 30.4803V30.4751L65.6936 30.4671L65.9789 30.1609L68.52 28.8199C68.8396 28.6483 69.2385 28.775 69.4075 29.0944C69.5766 29.4112 69.4524 29.8098 69.1328 29.9788L66.9245 31.1403L66.8347 33.635C66.8215 33.994 66.5151 34.2791 66.1559 34.2632C65.794 34.2553 65.514 33.9491 65.5272 33.5874L65.6302 30.739L65.6645 30.5595V30.5569Z" fill="#2B2A28"/>
<path fill-rule="evenodd" clip-rule="evenodd" d="M65.6434 129.668L65.6461 129.665L65.6487 129.657L65.654 129.652L65.6619 129.644L65.6672 129.639L65.6751 129.633L65.6804 129.626L65.691 129.615L65.6936 129.612L65.6962 129.607L65.7068 129.599L65.7094 129.594L65.7147 129.586V129.583C65.8045 129.465 65.8574 129.314 65.8574 129.153L65.8494 126.02C65.8442 125.624 65.5245 125.307 65.1257 125.307C64.7321 125.307 64.4125 125.629 64.4151 126.022L64.423 128.744L62.0695 130.111C61.7261 130.309 61.6125 130.748 61.8106 131.088C62.0087 131.431 62.4472 131.545 62.788 131.347L65.4796 129.784L65.6408 129.665L65.6434 129.668Z" fill="#2B2A28"/>
<path fill-rule="evenodd" clip-rule="evenodd" d="M117.599 125.069C116.603 124.858 115.969 123.881 116.178 122.886C116.389 121.893 117.372 121.257 118.365 121.471C119.361 121.682 119.997 122.662 119.786 123.654C119.575 124.647 118.592 125.283 117.599 125.069Z" fill="#57C0CF"/>
<path d="M171.197 36.618L170.674 89.4152" stroke="#2B2A28" stroke-width="0.754894" stroke-miterlimit="10" stroke-dasharray="3.2 3.2"/>
<path fill-rule="evenodd" clip-rule="evenodd" d="M32.3185 148.978H32.3238L32.3317 148.981L32.3396 148.986H32.3476H32.3581H32.3634H32.374L32.3898 148.989L32.3951 148.994L32.4004 148.992H32.411L32.4189 148.994L32.4321 148.992C32.5774 149.007 32.7332 148.976 32.8732 148.894L35.5385 147.244C35.8739 147.035 35.977 146.592 35.7736 146.257C35.5649 145.921 35.1211 145.818 34.7857 146.024L32.4691 147.458L30.0706 146.17C29.7246 145.982 29.2914 146.114 29.1038 146.46C28.9163 146.803 29.0431 147.239 29.3917 147.426L32.1389 148.902L32.3185 148.976V148.978Z" fill="#2B2A28"/>
</g>
<defs>
<clipPath id="clip0_17_747">
<rect width="172" height="149" fill="white"/>
</clipPath>
</defs>
</svg>
