<svg width="166" height="248" viewBox="0 0 166 248" fill="none" xmlns="http://www.w3.org/2000/svg">
<g clip-path="url(#clip0_17_710)">
<path fill-rule="evenodd" clip-rule="evenodd" d="M76.2167 176.489L82.237 172.821L82.0664 165.773L75.8787 162.403L69.8646 166.071L70.032 173.112L76.2167 176.489Z" fill="#2B2A28" stroke="#2B2A28" stroke-width="0.756634" stroke-miterlimit="22.9256"/>
<path fill-rule="evenodd" clip-rule="evenodd" d="M120.353 146.197C121.985 145.853 123.02 144.253 122.676 142.625C122.329 141 120.725 139.962 119.1 140.309C117.469 140.656 116.43 142.256 116.777 143.884C117.124 145.508 118.728 146.547 120.353 146.197Z" fill="#2B2A28" stroke="#2B2A28" stroke-width="0.756634" stroke-miterlimit="22.9256"/>
<path fill-rule="evenodd" clip-rule="evenodd" d="M74.9357 221.62L74.9326 221.617L74.9295 221.605L74.9233 221.596L74.914 221.586L74.9047 221.577L74.8954 221.571L74.8861 221.558L74.8737 221.543L74.8706 221.54L74.8675 221.534L74.8551 221.524L74.852 221.518L74.8427 221.506V221.503C74.7186 221.338 74.6473 221.131 74.6442 220.91L74.6535 216.591C74.6628 216.046 75.1001 215.608 75.6491 215.608C76.1888 215.612 76.6323 216.052 76.6292 216.594L76.6168 220.343L79.858 222.228C80.3295 222.501 80.4846 223.106 80.2147 223.574C79.9387 224.045 79.3401 224.203 78.8655 223.93L75.159 221.779L74.9357 221.617V221.62Z" fill="#2B2A28" stroke="#2B2A28" stroke-width="0.756634" stroke-miterlimit="22.9256"/>
<path fill-rule="evenodd" clip-rule="evenodd" d="M121.163 247.727L121.16 247.73L121.141 247.733H121.122L121.11 247.739L121.094 247.745L121.079 247.752H121.063L121.039 247.761H121.029L121.017 247.764L120.995 247.767H120.983L120.961 247.773V247.776C120.673 247.823 120.365 247.773 120.093 247.631L114.739 244.797C114.063 244.431 113.802 243.6 114.165 242.927C114.522 242.254 115.356 241.991 116.033 242.354L120.682 244.815L125.142 242.025C125.787 241.619 126.643 241.814 127.05 242.462C127.45 243.107 127.254 243.963 126.612 244.366L121.513 247.563L121.166 247.727H121.163Z" fill="#2B2A28" stroke="#2B2A28" stroke-width="0.756634" stroke-miterlimit="22.9256"/>
<path fill-rule="evenodd" clip-rule="evenodd" d="M0.468352 43.2558L0.46525 43.2589V43.2682L0.452843 43.2744L0.449742 43.2806L0.437335 43.2899V43.2992L0.42803 43.3085L0.415624 43.324L0.412522 43.3271L0.40942 43.3302L0.397014 43.3395V43.3488L0.378404 43.3581C0.269846 43.507 0.204712 43.7023 0.204712 43.9069L0.248135 47.8601C0.251237 48.3593 0.65445 48.7593 1.16002 48.7531C1.65318 48.7469 2.05639 48.3376 2.05019 47.8415L2.01607 44.4061L4.97194 42.6605C5.39997 42.4094 5.54264 41.8544 5.28831 41.4234C5.04017 40.9955 4.48498 40.8498 4.05385 41.1072L0.669959 43.1101L0.471453 43.2589L0.468352 43.2558Z" fill="#2B2A28" stroke="#2B2A28" stroke-width="0.756634" stroke-miterlimit="22.9256"/>
<path fill-rule="evenodd" clip-rule="evenodd" d="M1.59422 128.592V128.589L1.59112 128.586L1.58181 128.576L1.56941 128.57L1.5632 128.558L1.5539 128.548L1.5508 128.542L1.53839 128.527V128.524L1.53219 128.517L1.51978 128.508L1.51048 128.505L1.50737 128.49C1.39261 128.341 1.32128 128.152 1.32438 127.944L1.33678 123.988C1.33678 123.491 1.7431 123.092 2.24557 123.088C2.74183 123.088 3.14814 123.498 3.14814 123.997L3.13574 127.429L6.10401 129.153C6.53204 129.401 6.68092 129.956 6.42658 130.387C6.18465 130.821 5.62946 130.967 5.20143 130.719L1.80203 128.744L1.59422 128.595V128.592Z" fill="#2B2A28" stroke="#2B2A28" stroke-width="0.756634" stroke-miterlimit="22.9256"/>
<path fill-rule="evenodd" clip-rule="evenodd" d="M73.481 0.263758L73.4779 0.260658H73.4686L73.4562 0.257557H73.4376L73.4252 0.242055H73.4066H73.388L73.3694 0.238954H73.3601L73.3477 0.232753L73.3291 0.223451H73.3105H73.2949V0.21725C73.0375 0.183145 72.7491 0.229653 72.504 0.369177L67.6469 3.05424C67.0389 3.3922 66.8156 4.16423 67.1537 4.77504C67.4918 5.38584 68.2641 5.60598 68.8751 5.26802L73.0902 2.93022L77.2216 5.41995C77.8202 5.77651 78.5988 5.58738 78.9617 4.98898C79.3245 4.39057 79.1322 3.61234 78.5274 3.25268L73.8036 0.409484L73.481 0.260658V0.263758Z" fill="#2B2A28" stroke="#2B2A28" stroke-width="0.756634" stroke-miterlimit="22.9256"/>
<path d="M77.4294 218.405L119.032 144.25" stroke="#2B2A28" stroke-width="0.756634" stroke-miterlimit="10" stroke-dasharray="3.2 3.2"/>
<path d="M121.578 144.076L165.38 169.668L165.284 221.109" stroke="#2B2A28" stroke-width="0.756634" stroke-miterlimit="10" stroke-dasharray="3.2 3.2"/>
<path d="M163.255 221.961L123.244 245.104" stroke="#2B2A28" stroke-width="0.756634" stroke-miterlimit="10" stroke-dasharray="3.2 3.2"/>
<path d="M76.3594 218.157L75.8352 171.193" stroke="#2B2A28" stroke-width="0.756634" stroke-miterlimit="10" stroke-dasharray="3.2 3.2"/>
<path d="M75.8259 170.493L75.8166 169.783" stroke="#2B2A28" stroke-width="0.756634" stroke-miterlimit="10"/>
<path d="M163.953 168.868L77.1224 169.358" stroke="#2B2A28" stroke-width="0.756634" stroke-miterlimit="10" stroke-dasharray="3.2 3.2"/>
<path d="M76.7998 171.212L121.163 246.902" stroke="#2B2A28" stroke-width="0.756634" stroke-miterlimit="10" stroke-dasharray="3.2 3.2"/>
<path d="M120.942 245.234L121.305 245.845" stroke="#2B2A28" stroke-width="0.756634" stroke-miterlimit="10"/>
<path d="M165.284 221.109L76.927 170.065" stroke="#2B2A28" stroke-width="0.756634" stroke-miterlimit="10" stroke-dasharray="3.2 3.2"/>
<path d="M76.316 169.72L75.7018 169.37" stroke="#2B2A28" stroke-width="0.756634" stroke-miterlimit="10"/>
<path d="M145.805 43.0481L75.8166 169.783" stroke="#2B2A28" stroke-width="0.756634" stroke-miterlimit="10" stroke-dasharray="3.2 3.2"/>
<path d="M75.8166 169.606L3.5545 128.378" stroke="#2B2A28" stroke-width="0.756634" stroke-miterlimit="10" stroke-dasharray="3.2 3.2"/>
<path d="M2.31381 125.535L1.50739 46.0339" stroke="#2B2A28" stroke-width="0.756634" stroke-miterlimit="10" stroke-dasharray="3.2 3.2"/>
<path d="M1.33063 43.7364L71.3037 2.28528" stroke="#2B2A28" stroke-width="0.756634" stroke-miterlimit="10" stroke-dasharray="3.2 3.2"/>
<path d="M74.3619 2.59229L148.054 44.1488L148.215 126.53" stroke="#2B2A28" stroke-width="0.756634" stroke-miterlimit="10" stroke-dasharray="3.2 3.2"/>
<path d="M2.34796 128.874L3.05514 128.868" stroke="#2B2A28" stroke-width="0.756634" stroke-miterlimit="10"/>
<path d="M4.46326 127.659L147.787 127.541" stroke="#2B2A28" stroke-width="0.756634" stroke-miterlimit="10" stroke-dasharray="3.2 3.2"/>
<path d="M147.44 126.936L73.2515 2.76898" stroke="#2B2A28" stroke-width="0.756634" stroke-miterlimit="10" stroke-dasharray="3.2 3.2"/>
<path d="M1.62524 44.0247L148.038 127.429" stroke="#2B2A28" stroke-width="0.756634" stroke-miterlimit="10" stroke-dasharray="3.2 3.2"/>
<path d="M75.8724 220.923L119.891 245.857" stroke="#2B2A28" stroke-width="0.756634" stroke-miterlimit="10" stroke-dasharray="3.2 3.2"/>
<path fill-rule="evenodd" clip-rule="evenodd" d="M147.787 129.41C148.919 129.172 149.642 128.059 149.403 126.927C149.161 125.798 148.048 125.076 146.916 125.318C145.783 125.56 145.058 126.67 145.3 127.801C145.542 128.93 146.655 129.655 147.787 129.41Z" fill="#2B2A28" stroke="#2B2A28" stroke-width="0.756634" stroke-miterlimit="22.9256"/>
<path fill-rule="evenodd" clip-rule="evenodd" d="M76.2167 176.489L82.237 172.821L82.0664 165.773L75.8787 162.403L69.8646 166.071L70.032 173.112L76.2167 176.489Z" fill="#57C0CF"/>
<path fill-rule="evenodd" clip-rule="evenodd" d="M148.836 44.0464V44.0433L148.829 44.034L148.823 44.0216L148.817 44.0123V43.9999V43.9906L148.811 43.9844L148.805 43.9627L148.798 43.9596L148.792 43.9503L148.786 43.941V43.9317L148.774 43.9193C148.702 43.7488 148.566 43.5937 148.386 43.4945L144.915 41.6249C144.478 41.3893 143.926 41.5536 143.693 41.9908C143.454 42.4248 143.622 42.9736 144.059 43.2093L147.077 44.834L147.167 48.2662C147.182 48.7561 147.595 49.1499 148.094 49.1344C148.587 49.1251 148.978 48.7096 148.966 48.2104L148.86 44.2945C148.86 44.2107 148.845 44.127 148.82 44.0464H148.836Z" fill="#2B2A28"/>
<path fill-rule="evenodd" clip-rule="evenodd" d="M165.643 221.844V221.837L165.653 221.831L165.662 221.822L165.671 221.816L165.681 221.806L165.687 221.797L165.693 221.791L165.708 221.772H165.715V221.763L165.73 221.754L165.736 221.747L165.746 221.735C165.87 221.574 165.95 221.366 165.953 221.14L166 216.836C166.006 216.297 165.575 215.844 165.032 215.838C164.489 215.835 164.049 216.272 164.04 216.815L163.99 220.551L160.733 222.386C160.259 222.647 160.098 223.248 160.355 223.719C160.622 224.194 161.223 224.358 161.692 224.098L165.423 221.999L165.646 221.844H165.643Z" fill="#2B2A28"/>
<path fill-rule="evenodd" clip-rule="evenodd" d="M165.628 168.896V168.899L165.634 168.908L165.643 168.914L165.653 168.924L165.662 168.933L165.668 168.939L165.674 168.945L165.693 168.964L165.699 168.967L165.705 168.973L165.715 168.986L165.721 168.992L165.73 169.007C165.854 169.166 165.935 169.373 165.938 169.596L165.988 173.903C165.994 174.443 165.563 174.892 165.014 174.898C164.471 174.905 164.024 174.464 164.021 173.925L163.978 170.186L160.715 168.353C160.24 168.09 160.079 167.494 160.339 167.023C160.606 166.552 161.202 166.381 161.67 166.645L165.408 168.741L165.631 168.896H165.628Z" fill="#2B2A28"/>
</g>
<defs>
<clipPath id="clip0_17_710">
<rect width="166" height="248" fill="white"/>
</clipPath>
</defs>
</svg>
