<svg width="225" height="195" viewBox="0 0 225 195" fill="none" xmlns="http://www.w3.org/2000/svg">
<g clip-path="url(#clip0_47_1711)">
<path d="M140.867 28.3511L180.391 98.8094" stroke="#2B2A28" stroke-width="0.754894" stroke-miterlimit="10" stroke-dasharray="3.2 3.2"/>
<path d="M182.813 98.9752L222.184 76.2838" stroke="#2B2A28" stroke-width="0.754894" stroke-miterlimit="10" stroke-dasharray="3.2 3.2"/>
<path d="M139.851 28.5826L139.52 54.9984" stroke="#2B2A28" stroke-width="0.754894" stroke-miterlimit="10" stroke-dasharray="3.2 3.2"/>
<path d="M71.8418 33.1949L71.8349 33.8686M155.85 34.9292L155.176 34.9223" stroke="#2B2A28" stroke-width="0.754894" stroke-miterlimit="10"/>
<path d="M222.702 75.5306L143.21 74.7533" stroke="#2B2A28" stroke-width="0.754894" stroke-miterlimit="10" stroke-dasharray="3.2 3.2"/>
<path d="M140.27 73.1917L182.163 2.42937" stroke="#2B2A28" stroke-width="0.754894" stroke-miterlimit="10" stroke-dasharray="3.2 3.2"/>
<path d="M221.057 28.5343L140.394 74.28" stroke="#2B2A28" stroke-width="0.754894" stroke-miterlimit="10" stroke-dasharray="3.2 3.2"/>
<path d="M72.3083 33.9307L71.7243 34.2624M138.452 152.871L138.124 152.284" stroke="#2B2A28" stroke-width="0.754894" stroke-miterlimit="10"/>
<path d="M137.453 152.246L71.8348 33.8685" stroke="#2B2A28" stroke-width="0.754894" stroke-miterlimit="10" stroke-dasharray="3.2 3.2"/>
<path d="M71.8314 34.0378L3.18595 73.2124" stroke="#2B2A28" stroke-width="0.754894" stroke-miterlimit="10" stroke-dasharray="3.2 3.2"/>
<path d="M1.07118 153.638L67.5466 193.023" stroke="#2B2A28" stroke-width="0.754894" stroke-miterlimit="10" stroke-dasharray="3.2 3.2"/>
<path d="M138.462 151.986L139.146 93.7722" stroke="#2B2A28" stroke-width="0.754894" stroke-miterlimit="10" stroke-dasharray="3.2 3.2"/>
<path d="M4.04634 73.893L111.044 74.7187" stroke="#2B2A28" stroke-width="0.754894" stroke-miterlimit="10" stroke-dasharray="3.2 3.2"/>
<path d="M139.388 25.9569L181.804 1.61403" stroke="#2B2A28" stroke-width="0.754894" stroke-miterlimit="10" stroke-dasharray="3.2 3.2"/>
<path d="M138.462 76.7156L69.3954 192.564" stroke="#2B2A28" stroke-width="0.754894" stroke-miterlimit="10" stroke-dasharray="3.2 3.2"/>
<path d="M1.35117 153.365L138.324 75.6412" stroke="#2B2A28" stroke-width="0.754894" stroke-miterlimit="10" stroke-dasharray="3.2 3.2"/>
<path d="M70.4493 192.73L138.383 154.515" stroke="#2B2A28" stroke-width="0.754894" stroke-miterlimit="10" stroke-dasharray="3.2 3.2"/>
<path d="M223.376 73.5959L223.829 28.6586" stroke="#2B2A28" stroke-width="0.754894" stroke-miterlimit="10" stroke-dasharray="3.2 3.2"/>
<path d="M222.816 26.2748L183.21 1.14073" stroke="#2B2A28" stroke-width="0.754894" stroke-miterlimit="10" stroke-dasharray="3.2 3.2"/>
<path d="M222.802 27.5427L222.218 27.8778" stroke="#2B2A28" stroke-width="0.754894" stroke-miterlimit="10"/>
<path fill-rule="evenodd" clip-rule="evenodd" d="M0.252347 154.094L0.248888 154.09V154.084L0.235074 154.077L0.231615 154.07L0.21778 154.063V154.056L0.210883 154.046L0.197048 154.032L0.193589 154.028L0.190151 154.025L0.179775 154.014V154.008L0.162502 153.997C0.0588393 153.856 -0.00336933 153.669 8.63075e-05 153.475L0.0415497 149.72C0.0450048 149.247 0.428557 148.867 0.905406 148.874C1.37534 148.881 1.75544 149.267 1.75199 149.741L1.71744 153.006L4.52671 154.667C4.93445 154.906 5.06921 155.434 4.82733 155.842C4.59236 156.25 4.06367 156.388 3.65593 156.143L0.438932 154.239L0.248888 154.101L0.252347 154.094Z" fill="#2B2A28"/>
<path fill-rule="evenodd" clip-rule="evenodd" d="M0.912317 73.0051V73.0086L0.908858 73.012L0.901961 73.019L0.888126 73.0259L0.884667 73.0362L0.877771 73.0431L0.874312 73.05L0.860498 73.0639V73.0673L0.857039 73.0742L0.843204 73.0846L0.836308 73.0881L0.832849 73.1053C0.72573 73.247 0.656622 73.4266 0.660078 73.6235L0.670433 77.3824C0.670433 77.8523 1.05399 78.2323 1.53429 78.2358C2.00768 78.2358 2.39125 77.8488 2.39125 77.3721L2.38087 74.1107L5.20051 72.4731C5.60825 72.2347 5.74645 71.7096 5.50803 71.3019C5.27997 70.8908 4.75129 70.7526 4.34355 70.984L1.11274 72.8635L0.915776 73.0051H0.912317Z" fill="#2B2A28"/>
<path fill-rule="evenodd" clip-rule="evenodd" d="M69.613 194.944L69.6095 194.948H69.5992L69.5854 194.951H69.5681L69.5543 194.965H69.537H69.5197L69.5024 194.968H69.4955L69.4817 194.975L69.4644 194.982H69.4471H69.4299V194.989C69.1845 195.02 68.9115 194.979 68.6766 194.844L64.0601 192.291C63.4831 191.969 63.2688 191.237 63.5902 190.657C63.9115 190.076 64.6441 189.865 65.2281 190.187L69.2329 192.408L73.1583 190.042C73.7284 189.703 74.4679 189.883 74.81 190.453C75.1555 191.019 74.9724 191.762 74.3988 192.101L69.9136 194.802L69.6061 194.944H69.613Z" fill="#2B2A28"/>
<path fill-rule="evenodd" clip-rule="evenodd" d="M224.264 76.7744L224.267 76.7709L224.278 76.764L224.292 76.7571L224.295 76.7502L224.302 76.7398L224.305 76.7329L224.312 76.7225L224.326 76.7087L224.333 76.7053V76.6984L224.34 76.688L224.347 76.6811L224.354 76.6638C224.475 76.5153 224.551 76.3218 224.561 76.1076L224.644 72.0067C224.651 71.4919 224.24 71.06 223.728 71.0497C223.21 71.0393 222.782 71.4539 222.771 71.9652L222.699 75.5272L219.578 77.2442C219.126 77.4895 218.96 78.0596 219.209 78.5122C219.454 78.9647 220.021 79.134 220.477 78.8853L224.05 76.9195L224.257 76.7744H224.264Z" fill="#2B2A28"/>
<path fill-rule="evenodd" clip-rule="evenodd" d="M181.555 97.4033C182.858 97.6797 183.687 98.958 183.414 100.26C183.138 101.559 181.852 102.392 180.553 102.112C179.25 101.836 178.417 100.554 178.694 99.2551C178.97 97.9561 180.256 97.1234 181.555 97.4033Z" fill="#2B2A28"/>
<path fill-rule="evenodd" clip-rule="evenodd" d="M224.703 25.9224L224.71 25.9328L224.717 25.9397L224.724 25.9466L224.734 25.9569L224.741 25.9639L224.748 25.9708L224.758 25.988L224.765 25.9915V25.995L224.775 26.0088L224.779 26.0157L224.793 26.0295C224.907 26.185 224.983 26.3819 224.986 26.5961L224.997 30.6936C224.997 31.2118 224.578 31.6333 224.064 31.6367C223.545 31.6367 223.131 31.2187 223.124 30.7005L223.113 27.142L220.028 25.3662C219.575 25.1105 219.423 24.5405 219.679 24.0913C219.934 23.6422 220.508 23.4902 220.957 23.7424L224.496 25.7738L224.703 25.9224Z" fill="#2B2A28"/>
<path fill-rule="evenodd" clip-rule="evenodd" d="M139.661 86.714C139.502 89.0909 139.34 91.3573 139.191 93.4578L138.981 93.3196C138.939 91.3193 138.939 89.1634 138.794 86.9074C138.148 77.1164 138.027 76.7467 128.632 75.4961C124.019 74.8811 118.068 74.9536 113.331 74.7878L113.093 74.6047C115.346 74.5701 117.602 74.546 119.862 74.5114C124.471 74.4354 129.081 74.1832 133.639 73.5648C136.493 72.7874 137.574 70.6282 138.214 68.652C139.458 64.8137 139.295 61.5074 139.478 57.5619L139.869 57.1992C140.062 60.9477 139.876 65.4113 140.653 69.0458C142.001 75.3164 146.154 74.3145 154.578 74.9018V75.0193C149.831 75.1126 148.922 75.0538 146.127 75.4097C139.772 76.2008 140.028 81.5455 139.665 86.7105L139.661 86.714Z" fill="#2B2A28"/>
<path fill-rule="evenodd" clip-rule="evenodd" d="M139.102 155.009V155.013V155.02V155.03L139.095 155.041V155.047L139.091 155.061L139.088 155.068L139.081 155.089L139.077 155.099L139.074 155.11V155.117L139.064 155.127L138.69 155.528L135.366 157.283C134.948 157.507 134.426 157.341 134.205 156.923C133.984 156.509 134.147 155.987 134.565 155.766L137.453 154.246L137.571 150.981C137.588 150.511 137.989 150.138 138.459 150.159C138.932 150.169 139.299 150.57 139.281 151.043L139.147 154.771L139.102 155.006V155.009Z" fill="#2B2A28"/>
<path fill-rule="evenodd" clip-rule="evenodd" d="M139.129 25.3005L139.126 25.304L139.122 25.3143L139.115 25.3213L139.105 25.3316L139.098 25.3385L139.088 25.3454L139.081 25.3558L139.067 25.3696L139.064 25.3731L139.06 25.38L139.046 25.3904L139.043 25.3973L139.036 25.4076V25.4111C138.918 25.5665 138.849 25.7635 138.849 25.9742L138.86 30.0751C138.867 30.5934 139.285 31.0079 139.806 31.0079C140.321 31.0079 140.739 30.5864 140.736 30.0717L140.726 26.5097L143.804 24.7201C144.254 24.461 144.402 23.8875 144.143 23.4418C143.884 22.9927 143.31 22.8441 142.865 23.1032L139.343 25.1485L139.133 25.304L139.129 25.3005Z" fill="#2B2A28"/>
<path fill-rule="evenodd" clip-rule="evenodd" d="M71.1645 31.3189C72.4672 31.5952 73.2965 32.8735 73.0235 34.176C72.747 35.475 71.4616 36.3077 70.1624 36.0278C68.8597 35.7514 68.0269 34.4697 68.3034 33.1707C68.5798 31.8716 69.8652 31.039 71.1645 31.3189Z" fill="#2B2A28"/>
<path d="M1.05045 147.077L1.73462 77.9801" stroke="#2B2A28" stroke-width="0.754894" stroke-miterlimit="10" stroke-dasharray="3.2 3.2"/>
<path fill-rule="evenodd" clip-rule="evenodd" d="M182.723 0.0282788H182.716L182.706 0.0248418L182.695 0.0179253H182.685H182.671H182.664H182.65L182.63 0.0144672L182.623 0.00755072L182.616 0.0110087H182.602L182.592 0.00755072L182.574 0.0110087C182.384 -0.00972033 182.18 0.0317364 181.997 0.138837L178.511 2.29812C178.072 2.57105 177.937 3.15146 178.203 3.59023C178.476 4.029 179.057 4.16374 179.496 3.89426L182.526 2.01828L185.663 3.70425C186.116 3.94954 186.683 3.77681 186.928 3.32422C187.173 2.87509 187.008 2.30503 186.552 2.05973L182.958 0.128483L182.723 0.0317373V0.0282788Z" fill="#2B2A28"/>
</g>
<defs>
<clipPath id="clip0_47_1711">
<rect width="225" height="195" fill="white" transform="matrix(-1 0 0 -1 225 195)"/>
</clipPath>
</defs>
</svg>
