<svg width="159" height="87" viewBox="0 0 159 87" fill="none" xmlns="http://www.w3.org/2000/svg">
<g clip-path="url(#clip0_47_1749)">
<path fill-rule="evenodd" clip-rule="evenodd" d="M56.6619 81.2503H57.2384L56.0165 84.6984C55.9348 84.9182 55.8573 85.1035 55.7799 85.2415C55.6981 85.3751 55.6035 85.4871 55.5045 85.5647C55.4098 85.638 55.2894 85.6897 55.156 85.7242C55.0226 85.7587 54.8677 85.7759 54.6827 85.7759L54.6526 85.3665C54.7687 85.3449 54.872 85.3234 54.9581 85.3018C55.0484 85.2759 55.1302 85.2458 55.1861 85.1984C55.2592 85.1509 55.3195 85.0949 55.3582 85.013C55.4141 84.9441 55.4615 84.8449 55.4959 84.7329L55.5518 84.5734L55.2722 84.3363L54.2352 81.2503H54.8247L55.5303 83.5734L55.6938 84.1079H55.7196L55.9003 83.5821L56.6748 81.2503H56.6619Z" fill="#2B2A28"/>
<path fill-rule="evenodd" clip-rule="evenodd" d="M57.7762 82.5735L57.8967 82.8967L58.2151 82.6942C58.4302 82.5606 58.6066 82.483 58.7486 82.483C58.9551 82.483 59.1316 82.5304 59.2649 82.6295C59.3897 82.733 59.5059 82.8536 59.5833 83.0088C59.6565 83.164 59.7124 83.3493 59.7382 83.5476C59.7769 83.7502 59.7899 83.9484 59.7899 84.1639C59.7899 84.3363 59.7769 84.526 59.7382 84.7156C59.7124 84.9053 59.6608 85.0863 59.5833 85.2458C59.4973 85.4052 59.3811 85.5389 59.2348 85.638C59.0928 85.7501 58.8992 85.7932 58.6626 85.7932C58.5636 85.7932 58.4474 85.7759 58.3055 85.7285C58.1678 85.6854 58.0301 85.6035 57.9053 85.4914V87H57.3933V82.5735H57.7762ZM57.9053 85.0949C58.0043 85.1682 58.1204 85.2285 58.2452 85.2889C58.3786 85.3535 58.5163 85.3794 58.6583 85.3794C58.796 85.3794 58.9078 85.3363 58.9896 85.2501C59.0756 85.1682 59.1316 85.0518 59.166 84.9311C59.2004 84.8104 59.2262 84.6725 59.2348 84.5303C59.2391 84.3924 59.2434 84.2803 59.2434 84.1769C59.2434 83.97 59.2391 83.8062 59.2133 83.651C59.1961 83.5045 59.166 83.3752 59.123 83.289C59.0756 83.1812 59.0154 83.1079 58.9422 83.0519C58.8605 83.0002 58.7529 82.97 58.6368 82.97C58.5679 82.97 58.4991 82.9916 58.4302 83.0045C58.3657 83.0304 58.3012 83.0648 58.2366 83.0907C58.1721 83.1252 58.1032 83.164 58.0516 83.2028C57.9957 83.2459 57.9483 83.289 57.9053 83.3235V85.1035V85.0949Z" fill="#2B2A28"/>
<path fill-rule="evenodd" clip-rule="evenodd" d="M62.892 85.6682C62.8189 85.6897 62.75 85.7156 62.6683 85.7414C62.5908 85.763 62.5091 85.7759 62.4445 85.7759C62.3499 85.7759 62.2767 85.7544 62.2251 85.7199C62.1778 85.6897 62.1391 85.6165 62.1003 85.5001L62.0788 85.3837L61.7303 85.5992C61.6314 85.6725 61.541 85.7199 61.4679 85.7458C61.3904 85.7759 61.3173 85.7802 61.257 85.7802C61.0548 85.7802 60.8913 85.7544 60.7837 85.6854C60.659 85.6165 60.5729 85.5432 60.5127 85.4441C60.4524 85.3535 60.4137 85.2501 60.4008 85.151C60.3793 85.0389 60.375 84.9441 60.375 84.8622C60.375 84.6725 60.4137 84.5087 60.4998 84.3622C60.5901 84.2286 60.702 84.1122 60.8569 84.0303C61.0075 83.9441 61.1882 83.8795 61.399 83.8321C61.6055 83.7933 61.8293 83.776 62.0831 83.7717V83.5217C62.0831 83.3407 62.0358 83.1942 61.9627 83.0864C61.8809 82.9916 61.726 82.9399 61.498 82.9399C61.3388 82.9399 61.1882 82.9528 61.0548 82.9916C60.9214 83.0261 60.7966 83.0605 60.6848 83.1036L60.5729 82.7545C60.7192 82.6726 60.8784 82.5994 61.0462 82.5563C61.2269 82.5045 61.3947 82.4916 61.5711 82.4916C61.9454 82.4916 62.2079 82.5735 62.3628 82.7416C62.5134 82.9054 62.5951 83.1295 62.5951 83.4097V85.3492H62.9006V85.6725L62.892 85.6682ZM62.0831 84.1338C61.9713 84.1338 61.8422 84.1381 61.7131 84.1639C61.5754 84.1769 61.4463 84.207 61.3173 84.2588C61.2011 84.3062 61.0935 84.3838 61.0075 84.47C60.9257 84.5562 60.8827 84.6725 60.8827 84.8277C60.8827 84.9915 60.9171 85.1122 60.9774 85.207C61.0376 85.3018 61.1538 85.3406 61.3173 85.3406C61.3689 85.3406 61.4334 85.3277 61.498 85.3018C61.5711 85.2803 61.64 85.2458 61.7217 85.2113C61.7949 85.1682 61.8551 85.1251 61.9239 85.0863C61.9928 85.0475 62.0358 85.0044 62.0831 84.9613V84.1338Z" fill="#2B2A28"/>
<path fill-rule="evenodd" clip-rule="evenodd" d="M64.1483 83.0088V83.7243C64.1483 84.0432 64.1354 84.3277 64.1096 84.5561C64.0838 84.7846 64.0364 84.9829 63.9762 85.1466C63.9074 85.3104 63.8127 85.4397 63.7008 85.5475C63.589 85.6639 63.447 85.7587 63.2706 85.8492L63.0856 85.4915C63.219 85.3966 63.3265 85.2975 63.4083 85.1984C63.4814 85.1035 63.5503 84.9915 63.5976 84.8579C63.6406 84.7329 63.6664 84.5949 63.6836 84.4225C63.6965 84.2544 63.6965 84.0432 63.6965 83.8062V82.5692H65.6542V85.6897H65.1465V83.0045H64.1569L64.1483 83.0088Z" fill="#2B2A28"/>
<path fill-rule="evenodd" clip-rule="evenodd" d="M66.4803 82.5735H66.9665V83.8536H67.7797C67.883 83.8536 67.9863 83.8665 68.1067 83.8924C68.2229 83.9139 68.3305 83.9527 68.4251 84.0217C68.5241 84.0907 68.6101 84.1769 68.6747 84.2932C68.7435 84.4139 68.7779 84.5648 68.7779 84.763C68.7779 84.9311 68.7435 85.082 68.6704 85.2027C68.6101 85.3233 68.5241 85.4182 68.4165 85.4914C68.3176 85.5776 68.21 85.6164 68.0852 85.6552C67.9647 85.6854 67.8572 85.6983 67.7582 85.6983H66.4847V82.5778L66.4803 82.5735ZM67.7109 85.2673C67.7668 85.2673 67.8185 85.2587 67.8916 85.2458C67.9604 85.2285 68.025 85.1984 68.0809 85.1509C68.1411 85.1165 68.1842 85.0604 68.2229 84.9958C68.2659 84.9311 68.2788 84.8449 68.2788 84.7501C68.2788 84.6596 68.2659 84.5777 68.2272 84.5174C68.2014 84.4613 68.1541 84.4139 68.0938 84.388C68.0336 84.3449 67.9733 84.3234 67.9002 84.2975C67.8271 84.2803 67.7496 84.2717 67.6636 84.2717H66.9622V85.2716H67.7066L67.7109 85.2673Z" fill="#2B2A28"/>
<path fill-rule="evenodd" clip-rule="evenodd" d="M70.5722 85.7932C70.1806 85.7932 69.8794 85.6552 69.66 85.3708C69.4406 85.0949 69.333 84.7113 69.333 84.2329C69.333 83.9613 69.3631 83.72 69.4191 83.5174C69.4879 83.2933 69.574 83.0993 69.6858 82.9528C69.7977 82.7976 69.9311 82.6769 70.0946 82.595C70.2538 82.5175 70.4345 82.483 70.6281 82.483C70.8217 82.483 71.0024 82.5002 71.1702 82.5304C71.3337 82.5692 71.4843 82.6252 71.6048 82.6985L71.4843 83.0605C71.3767 83.0347 71.252 83.0002 71.1143 82.9657C70.9723 82.9355 70.8174 82.914 70.6625 82.914C70.3914 82.914 70.1892 83.0304 70.0644 83.2459C69.9397 83.4614 69.8751 83.7631 69.8751 84.1294C69.8751 84.276 69.8837 84.4312 69.901 84.5691C69.9225 84.7156 69.9612 84.8492 70.0214 84.957C70.0774 85.082 70.1462 85.1639 70.2452 85.2415C70.3398 85.3147 70.4732 85.3578 70.6281 85.3578C70.7916 85.3578 70.9465 85.3277 71.0971 85.2975C71.2434 85.2587 71.381 85.2199 71.5101 85.1639L71.6392 85.5432C71.5101 85.6078 71.3552 85.6595 71.1917 85.7156C71.0239 85.7673 70.8217 85.7888 70.5722 85.7888V85.7932Z" fill="#2B2A28"/>
<path fill-rule="evenodd" clip-rule="evenodd" d="M74.5046 82.5735L73.1751 84.0217L74.5132 85.694H73.8851L72.6545 84.1079V85.694H72.1511V82.5735H72.6545V83.957L73.9109 82.5735H74.5046Z" fill="#2B2A28"/>
<path fill-rule="evenodd" clip-rule="evenodd" d="M76.0278 85.7932C75.8041 85.7932 75.6148 85.7501 75.4513 85.6682C75.3007 85.5777 75.1673 85.4656 75.064 85.3234C74.9737 85.1682 74.8962 85.0001 74.8489 84.7975C74.8016 84.5993 74.7758 84.3838 74.7758 84.1596C74.7758 83.9441 74.793 83.7286 74.8403 83.526C74.8876 83.3148 74.9608 83.1381 75.064 82.9916C75.1673 82.8364 75.2964 82.72 75.4599 82.6295C75.6148 82.5347 75.8213 82.4916 76.0493 82.4916C76.286 82.4916 76.4796 82.5347 76.6474 82.6123C76.8023 82.7028 76.94 82.8149 77.0389 82.9657C77.1422 83.1166 77.2239 83.2847 77.2584 83.4786C77.31 83.6898 77.3315 83.8967 77.3315 84.1251C77.3315 84.3536 77.31 84.5648 77.2584 84.7674C77.2239 84.9613 77.1422 85.1553 77.0389 85.3061C76.9314 85.457 76.8023 85.5863 76.6345 85.6639C76.4753 85.7587 76.2688 85.8018 76.0321 85.8018L76.0278 85.7932ZM76.0493 82.8968C75.9116 82.8968 75.7869 82.9312 75.6965 82.9916C75.6019 83.0605 75.533 83.1511 75.4771 83.2502C75.4255 83.3623 75.3824 83.4873 75.3566 83.6252C75.3394 83.776 75.3308 83.9312 75.3308 84.0907C75.3308 84.2803 75.3351 84.4527 75.3566 84.6079C75.3867 84.7674 75.4255 84.901 75.4771 85.0087C75.533 85.1251 75.6019 85.2113 75.6965 85.2803C75.7869 85.3406 75.9116 85.3751 76.0493 85.3751C76.1956 85.3751 76.3161 85.3406 76.4107 85.2803C76.5054 85.2242 76.5785 85.1294 76.6302 85.0217C76.6775 84.9182 76.7248 84.7803 76.7463 84.6294C76.7722 84.47 76.7851 84.2932 76.7851 84.1122C76.7851 83.9527 76.7722 83.7976 76.755 83.6553C76.7291 83.5174 76.6904 83.3795 76.6302 83.2674C76.5785 83.1554 76.5054 83.0649 76.4107 83.0045C76.3161 82.9312 76.1956 82.9011 76.0493 82.9011V82.8968Z" fill="#2B2A28"/>
<path fill-rule="evenodd" clip-rule="evenodd" d="M78.5191 85.694H78.0114V82.5735H79.9303V83.0088H78.5191V85.694Z" fill="#2B2A28"/>
<path fill-rule="evenodd" clip-rule="evenodd" d="M81.4405 85.7932C81.2168 85.7932 81.0231 85.7501 80.8683 85.6682C80.7091 85.5777 80.5843 85.4656 80.481 85.3234C80.3864 85.1682 80.3089 85.0001 80.2616 84.7975C80.2186 84.5993 80.1927 84.3838 80.1927 84.1596C80.1927 83.9441 80.2186 83.7286 80.2616 83.526C80.3046 83.3148 80.3778 83.1381 80.481 82.9916C80.5843 82.8364 80.7091 82.72 80.8769 82.6295C81.0361 82.5347 81.234 82.4916 81.4706 82.4916C81.6987 82.4916 81.8923 82.5347 82.0601 82.6123C82.2236 82.7028 82.3569 82.8149 82.4602 82.9657C82.5635 83.1166 82.6323 83.2847 82.6839 83.4786C82.727 83.6898 82.7485 83.8967 82.7485 84.1251C82.7485 84.3536 82.7227 84.5648 82.6839 84.7674C82.6323 84.9613 82.5635 85.1553 82.4602 85.3061C82.3526 85.457 82.215 85.5863 82.0515 85.6639C81.8923 85.7587 81.6857 85.8018 81.4448 85.8018L81.4405 85.7932ZM81.4706 82.8968C81.3243 82.8968 81.2082 82.9312 81.1092 82.9916C81.0231 83.0605 80.95 83.1511 80.8898 83.2502C80.8338 83.3623 80.7994 83.4873 80.7736 83.6252C80.7521 83.776 80.7478 83.9312 80.7478 84.0907C80.7478 84.2803 80.7521 84.4527 80.7736 84.6079C80.7994 84.7674 80.8338 84.901 80.8898 85.0087C80.95 85.1251 81.0188 85.2113 81.1092 85.2803C81.2125 85.3406 81.3243 85.3751 81.4706 85.3751C81.6126 85.3751 81.7331 85.3406 81.832 85.2803C81.9181 85.2242 81.9912 85.1294 82.0472 85.0217C82.1074 84.9182 82.1504 84.7803 82.1676 84.6294C82.1935 84.47 82.1978 84.2932 82.1978 84.1122C82.1978 83.9527 82.1935 83.7976 82.1676 83.6553C82.1504 83.5174 82.1074 83.3795 82.0515 83.2674C82.0041 83.1554 81.9181 83.0649 81.832 83.0045C81.7374 82.9312 81.6126 82.9011 81.4706 82.9011V82.8968Z" fill="#2B2A28"/>
<path fill-rule="evenodd" clip-rule="evenodd" d="M87.2274 81.0865V82.8795L87.477 82.6855C87.5716 82.6252 87.6491 82.5735 87.7179 82.5433C87.7824 82.5131 87.8513 82.5002 87.9244 82.5002C88.118 82.5002 88.2815 82.5433 88.4149 82.6381C88.5397 82.733 88.6473 82.8536 88.7247 83.0002C88.7936 83.1597 88.8409 83.3364 88.8753 83.526C88.9054 83.7286 88.9183 83.9355 88.9183 84.1381C88.9183 84.3191 88.9054 84.5044 88.8667 84.6984C88.8237 84.8923 88.772 85.069 88.6946 85.2242C88.6085 85.3837 88.5053 85.5216 88.3676 85.6207C88.2342 85.7285 88.0664 85.7759 87.8642 85.7759C87.7781 85.7759 87.6835 85.7587 87.5716 85.7026C87.4554 85.6552 87.3479 85.5733 87.2274 85.4699V86.9957H86.7455V85.4871C86.6336 85.5906 86.5218 85.6682 86.4056 85.7199C86.298 85.7759 86.1948 85.7931 86.1044 85.7931C85.8979 85.7931 85.7344 85.7587 85.6053 85.6682C85.4763 85.5776 85.3601 85.4613 85.2826 85.3061C85.1966 85.1682 85.1406 84.9872 85.1019 84.7846C85.0718 84.5777 85.0503 84.3708 85.0503 84.1424C85.0503 83.9441 85.0718 83.7372 85.1019 83.5303C85.1363 83.3364 85.1923 83.1553 85.2654 83.0045C85.3472 82.8493 85.4504 82.733 85.5709 82.6338C85.6957 82.5476 85.842 82.5045 86.0313 82.5045C86.0786 82.5045 86.1431 82.5174 86.2249 82.539C86.3066 82.5735 86.3927 82.6209 86.4745 82.6812L86.7498 82.8838V81.0908H87.2274V81.0865ZM86.7455 83.289C86.6595 83.1941 86.5519 83.1166 86.4314 83.0519C86.3196 82.9873 86.2206 82.9571 86.1604 82.9571C85.9495 82.9571 85.8032 83.0562 85.7258 83.2502C85.6441 83.4527 85.6053 83.7501 85.6053 84.1553C85.6053 84.3018 85.6053 84.457 85.6311 84.6079C85.6441 84.7587 85.6742 84.8923 85.7129 85.0044C85.7559 85.1251 85.8032 85.2242 85.8764 85.2846C85.9409 85.3621 86.027 85.3966 86.1216 85.3966C86.2507 85.3966 86.3626 85.3664 86.4615 85.3018C86.5476 85.2415 86.6466 85.1682 86.7412 85.0906V83.289H86.7455ZM87.2274 85.0777C87.3307 85.1466 87.4167 85.2242 87.5157 85.2802C87.606 85.3406 87.7222 85.3751 87.847 85.3751C87.9459 85.3751 88.0363 85.3406 88.1008 85.2802C88.174 85.207 88.2213 85.1165 88.26 85.0001C88.2988 84.888 88.3332 84.7587 88.3461 84.6079C88.3633 84.4613 88.3719 84.3062 88.3719 84.1553C88.3719 83.7545 88.3289 83.4571 88.2428 83.2502C88.1697 83.0562 88.0277 82.9571 87.8126 82.9571C87.7265 82.9571 87.6232 82.9873 87.5114 83.0519C87.4081 83.1166 87.3135 83.1941 87.2188 83.289V85.0777H87.2274Z" fill="#2B2A28"/>
<path fill-rule="evenodd" clip-rule="evenodd" d="M90.0457 84.2501C90.0457 84.3838 90.0543 84.5044 90.0629 84.6381C90.0758 84.776 90.1188 84.8967 90.1704 85.0044C90.2264 85.1079 90.3124 85.1984 90.4157 85.2587C90.5319 85.3234 90.6781 85.3665 90.8718 85.3665C91.0051 85.3665 91.1514 85.3449 91.3063 85.3234C91.4483 85.2975 91.5989 85.2501 91.7753 85.1854L91.913 85.5561C91.7753 85.6208 91.6161 85.6725 91.444 85.7285C91.2676 85.7802 91.074 85.8018 90.8589 85.8018C90.5835 85.8018 90.3555 85.7587 90.1834 85.6768C90.0069 85.5992 89.865 85.4828 89.7703 85.3363C89.667 85.1898 89.5982 85.013 89.5595 84.8148C89.5207 84.6165 89.5035 84.4053 89.5035 84.1726C89.5035 84.0389 89.5207 83.8622 89.5466 83.6726C89.5638 83.4743 89.6197 83.2933 89.7144 83.1252C89.7918 82.9485 89.908 82.7933 90.0758 82.677C90.2307 82.5433 90.4544 82.4873 90.7298 82.4873C91.018 82.4873 91.2461 82.539 91.4096 82.6382C91.5817 82.733 91.6979 82.8623 91.7796 83.0218C91.8657 83.1942 91.913 83.3752 91.9345 83.595C91.9517 83.8105 91.9603 84.0346 91.9603 84.2631H90.05L90.0457 84.2501ZM90.7298 82.8968C90.6093 82.8968 90.5103 82.9312 90.4243 82.9873C90.3382 83.0519 90.2651 83.1209 90.2092 83.2071C90.1489 83.2933 90.1102 83.401 90.0844 83.5131C90.0586 83.6166 90.0457 83.7243 90.0457 83.8278H91.4096C91.4096 83.6898 91.401 83.5691 91.3795 83.4614C91.3623 83.3493 91.3321 83.2502 91.2719 83.1597C91.216 83.0778 91.1471 83.0175 91.0568 82.9657C90.9707 82.914 90.8546 82.8925 90.7255 82.8925L90.7298 82.8968Z" fill="#2B2A28"/>
<path fill-rule="evenodd" clip-rule="evenodd" d="M92.7993 86.6336H92.3303L92.3131 85.276L92.5971 85.2587C92.6573 85.2027 92.7003 85.1337 92.7434 85.0648C92.7864 85.0044 92.8294 84.9096 92.8552 84.8105C92.894 84.7027 92.9198 84.5777 92.9327 84.4398C92.9542 84.2976 92.9714 84.1165 92.98 83.9096L93.0532 82.5821H95.0539V85.2803L95.3679 85.2889L95.355 86.6423H94.899L94.8861 85.7027H92.7993L92.795 86.6423L92.7993 86.6336ZM93.492 83.0131L93.4447 83.8967C93.4318 84.0691 93.4189 84.2157 93.406 84.3493C93.3931 84.4829 93.3802 84.6122 93.3543 84.7199C93.3285 84.832 93.2941 84.9311 93.264 85.013C93.2382 85.1165 93.1908 85.1984 93.1521 85.2673H94.5634V83.0131H93.492Z" fill="#2B2A28"/>
<path fill-rule="evenodd" clip-rule="evenodd" d="M96.3705 84.2501C96.3705 84.3838 96.3748 84.5044 96.3877 84.6381C96.4092 84.776 96.435 84.8967 96.4952 85.0044C96.5512 85.1079 96.6329 85.1984 96.7405 85.2587C96.8438 85.3234 97.0029 85.3665 97.1966 85.3665C97.3385 85.3665 97.4762 85.3449 97.6311 85.3234C97.7731 85.2975 97.928 85.2501 98.0872 85.1854L98.2378 85.5561C98.1001 85.6208 97.9452 85.6725 97.7731 85.7285C97.5967 85.7802 97.4031 85.8018 97.188 85.8018C96.9083 85.8018 96.6803 85.7587 96.5082 85.6768C96.3317 85.5992 96.1898 85.4828 96.0908 85.3363C95.9875 85.1898 95.9187 85.013 95.88 84.8148C95.8455 84.6165 95.8326 84.4053 95.8326 84.1726C95.8326 84.0389 95.8369 83.8622 95.8671 83.6726C95.8929 83.4743 95.9488 83.2933 96.0306 83.1252C96.1123 82.9485 96.2414 82.7933 96.392 82.677C96.5555 82.5433 96.7706 82.4873 97.046 82.4873C97.3386 82.4873 97.558 82.539 97.7258 82.6382C97.8936 82.733 98.0184 82.8623 98.0958 83.0218C98.1819 83.1942 98.2335 83.3752 98.2507 83.595C98.2679 83.8105 98.2808 84.0346 98.2808 84.2631H96.3662L96.3705 84.2501ZM97.046 82.8968C96.9341 82.8968 96.8308 82.9312 96.7448 82.9873C96.663 83.0519 96.5856 83.1209 96.534 83.2071C96.4823 83.2933 96.435 83.401 96.4135 83.5131C96.3791 83.6166 96.3662 83.7243 96.3662 83.8278H97.7301C97.7301 83.6898 97.7215 83.5691 97.6957 83.4614C97.6785 83.3493 97.644 83.2502 97.5881 83.1597C97.5408 83.0778 97.4676 83.0175 97.3773 82.9657C97.2869 82.914 97.175 82.8925 97.0417 82.8925L97.046 82.8968Z" fill="#2B2A28"/>
<path fill-rule="evenodd" clip-rule="evenodd" d="M99.3091 82.5735L99.4296 82.8967L99.7566 82.6942C99.9631 82.5606 100.148 82.483 100.286 82.483C100.497 82.483 100.669 82.5304 100.802 82.6295C100.936 82.733 101.043 82.8536 101.121 83.0088C101.202 83.164 101.254 83.3493 101.275 83.5476C101.31 83.7502 101.323 83.9484 101.323 84.1639C101.323 84.3363 101.314 84.526 101.275 84.7156C101.25 84.9053 101.202 85.0863 101.121 85.2458C101.034 85.4052 100.923 85.5389 100.781 85.638C100.63 85.7501 100.436 85.7932 100.204 85.7932C100.105 85.7932 99.9846 85.7759 99.8427 85.7285C99.7007 85.6854 99.5716 85.6035 99.4425 85.4914V87H98.9348V82.5735H99.3091ZM99.4425 85.0949C99.5372 85.1682 99.6533 85.2285 99.791 85.2889C99.9244 85.3535 100.053 85.3794 100.204 85.3794C100.337 85.3794 100.449 85.3363 100.527 85.2501C100.604 85.1682 100.669 85.0518 100.707 84.9311C100.746 84.8104 100.763 84.6725 100.772 84.5303C100.785 84.3924 100.785 84.2803 100.785 84.1769C100.785 83.97 100.772 83.8062 100.759 83.651C100.738 83.5045 100.707 83.3752 100.669 83.289C100.621 83.1812 100.553 83.1079 100.475 83.0519C100.402 83.0002 100.299 82.97 100.17 82.97C100.109 82.97 100.041 82.9916 99.976 83.0045C99.9029 83.0304 99.8341 83.0648 99.7738 83.0907C99.7093 83.1252 99.649 83.164 99.5974 83.2028C99.5372 83.2459 99.4898 83.289 99.4468 83.3235V85.1035L99.4425 85.0949Z" fill="#2B2A28"/>
<path fill-rule="evenodd" clip-rule="evenodd" d="M104.434 85.6682C104.356 85.6897 104.283 85.7156 104.206 85.7414C104.124 85.763 104.051 85.7759 103.978 85.7759C103.887 85.7759 103.814 85.7544 103.758 85.7199C103.711 85.6897 103.672 85.6165 103.646 85.5001L103.612 85.3837L103.272 85.5992C103.169 85.6725 103.074 85.7199 103.009 85.7458C102.932 85.7759 102.863 85.7802 102.799 85.7802C102.596 85.7802 102.433 85.7544 102.317 85.6854C102.196 85.6165 102.11 85.5432 102.046 85.4441C101.99 85.3535 101.955 85.2501 101.934 85.151C101.912 85.0389 101.908 84.9441 101.908 84.8622C101.908 84.6725 101.951 84.5087 102.041 84.3622C102.123 84.2286 102.235 84.1122 102.39 84.0303C102.545 83.9441 102.73 83.8795 102.936 83.8321C103.139 83.7933 103.367 83.776 103.607 83.7717V83.5217C103.607 83.3407 103.564 83.1942 103.491 83.0864C103.405 82.9916 103.259 82.9399 103.031 82.9399C102.867 82.9399 102.721 82.9528 102.583 82.9916C102.454 83.0261 102.33 83.0605 102.213 83.1036L102.102 82.7545C102.248 82.6726 102.407 82.5994 102.575 82.5563C102.751 82.5045 102.915 82.4916 103.095 82.4916C103.474 82.4916 103.732 82.5735 103.887 82.7416C104.033 82.9054 104.111 83.1295 104.111 83.4097V85.3492H104.421V85.6725L104.434 85.6682ZM103.616 84.1338C103.509 84.1338 103.388 84.1381 103.246 84.1639C103.108 84.1769 102.979 84.207 102.859 84.2588C102.734 84.3062 102.631 84.3838 102.545 84.47C102.463 84.5562 102.42 84.6725 102.42 84.8277C102.42 84.9915 102.454 85.1122 102.515 85.207C102.583 85.3018 102.691 85.3406 102.855 85.3406C102.91 85.3406 102.966 85.3277 103.04 85.3018C103.104 85.2803 103.182 85.2458 103.246 85.2113C103.328 85.1682 103.397 85.1251 103.461 85.0863C103.526 85.0475 103.573 85.0044 103.616 84.9613V84.1338Z" fill="#2B2A28"/>
<path fill-rule="evenodd" clip-rule="evenodd" d="M105.699 83.0088V83.7243C105.699 84.0432 105.681 84.3277 105.656 84.5561C105.63 84.7846 105.582 84.9829 105.505 85.1466C105.44 85.3104 105.354 85.4397 105.251 85.5475C105.135 85.6639 104.989 85.7587 104.817 85.8492L104.627 85.4915C104.761 85.3966 104.864 85.2975 104.95 85.1984C105.032 85.1035 105.092 84.9915 105.131 84.8579C105.169 84.7329 105.204 84.5949 105.217 84.4225C105.23 84.2544 105.234 84.0432 105.234 83.8062V82.5692H107.179V85.6897H106.68V83.0045H105.694L105.699 83.0088Z" fill="#2B2A28"/>
<path fill-rule="evenodd" clip-rule="evenodd" d="M108.022 82.5735H108.508V83.8536H109.308C109.416 83.8536 109.523 83.8665 109.64 83.8924C109.751 83.9139 109.863 83.9527 109.958 84.0217C110.066 84.0907 110.147 84.1769 110.212 84.2932C110.272 84.4139 110.307 84.5648 110.307 84.763C110.307 84.9311 110.272 85.082 110.208 85.2027C110.134 85.3233 110.053 85.4182 109.954 85.4914C109.855 85.5776 109.739 85.6164 109.622 85.6552C109.502 85.6854 109.39 85.6983 109.287 85.6983H108.022V82.5778V82.5735ZM109.248 85.2673C109.304 85.2673 109.364 85.2587 109.437 85.2458C109.502 85.2285 109.562 85.1984 109.622 85.1509C109.678 85.1165 109.726 85.0604 109.764 84.9958C109.803 84.9311 109.829 84.8449 109.829 84.7501C109.829 84.6596 109.807 84.5777 109.769 84.5174C109.743 84.4613 109.696 84.4139 109.644 84.388C109.584 84.3449 109.523 84.3234 109.446 84.2975C109.381 84.2803 109.3 84.2717 109.218 84.2717H108.517V85.2716H109.257L109.248 85.2673Z" fill="#2B2A28"/>
<path fill-rule="evenodd" clip-rule="evenodd" d="M112.772 84.2889H111.425V85.694H110.93V82.5735H111.425V83.8708H112.772V82.5735H113.284V85.694H112.772V84.2889Z" fill="#2B2A28"/>
<path fill-rule="evenodd" clip-rule="evenodd" d="M115.177 85.7932C114.953 85.7932 114.76 85.7501 114.601 85.6682C114.446 85.5777 114.317 85.4656 114.213 85.3234C114.119 85.1682 114.046 85.0001 113.998 84.7975C113.947 84.5993 113.925 84.3838 113.925 84.1596C113.925 83.9441 113.947 83.7286 113.99 83.526C114.033 83.3148 114.11 83.1381 114.205 82.9916C114.312 82.8364 114.441 82.72 114.605 82.6295C114.764 82.5347 114.966 82.4916 115.203 82.4916C115.431 82.4916 115.629 82.5347 115.797 82.6123C115.956 82.7028 116.085 82.8149 116.184 82.9657C116.287 83.1166 116.36 83.2847 116.403 83.4786C116.459 83.6898 116.481 83.8967 116.481 84.1251C116.481 84.3536 116.459 84.5648 116.403 84.7674C116.36 84.9613 116.287 85.1553 116.184 85.3061C116.076 85.457 115.943 85.5863 115.775 85.6639C115.616 85.7587 115.414 85.8018 115.173 85.8018L115.177 85.7932ZM115.203 82.8968C115.057 82.8968 114.94 82.9312 114.842 82.9916C114.747 83.0605 114.678 83.1511 114.618 83.2502C114.566 83.3623 114.527 83.4873 114.502 83.6252C114.489 83.776 114.467 83.9312 114.467 84.0907C114.467 84.2803 114.493 84.4527 114.502 84.6079C114.527 84.7674 114.566 84.901 114.618 85.0087C114.678 85.1251 114.747 85.2113 114.842 85.2803C114.936 85.3406 115.057 85.3751 115.203 85.3751C115.349 85.3751 115.457 85.3406 115.556 85.2803C115.65 85.2242 115.724 85.1294 115.775 85.0217C115.827 84.9182 115.87 84.7803 115.891 84.6294C115.917 84.47 115.926 84.2932 115.926 84.1122C115.926 83.9527 115.917 83.7976 115.896 83.6553C115.878 83.5174 115.831 83.3795 115.775 83.2674C115.724 83.1554 115.65 83.0649 115.556 83.0045C115.457 82.9312 115.349 82.9011 115.203 82.9011V82.8968Z" fill="#2B2A28"/>
<path fill-rule="evenodd" clip-rule="evenodd" d="M117.668 85.694H117.161V82.5735H119.075V83.0088H117.668V85.694Z" fill="#2B2A28"/>
<path fill-rule="evenodd" clip-rule="evenodd" d="M120.59 85.7932C120.37 85.7932 120.177 85.7501 120.009 85.6682C119.854 85.5777 119.729 85.4656 119.626 85.3234C119.531 85.1682 119.458 85.0001 119.407 84.7975C119.364 84.5993 119.346 84.3838 119.346 84.1596C119.346 83.9441 119.364 83.7286 119.407 83.526C119.458 83.3148 119.523 83.1381 119.626 82.9916C119.729 82.8364 119.854 82.72 120.022 82.6295C120.181 82.5347 120.383 82.4916 120.616 82.4916C120.852 82.4916 121.05 82.5347 121.205 82.6123C121.373 82.7028 121.498 82.8149 121.601 82.9657C121.704 83.1166 121.773 83.2847 121.82 83.4786C121.872 83.6898 121.893 83.8967 121.893 84.1251C121.893 84.3536 121.872 84.5648 121.82 84.7674C121.777 84.9613 121.704 85.1553 121.601 85.3061C121.498 85.457 121.364 85.5863 121.196 85.6639C121.037 85.7587 120.835 85.8018 120.594 85.8018L120.59 85.7932ZM120.616 82.8968C120.474 82.8968 120.353 82.9312 120.263 82.9916C120.168 83.0605 120.086 83.1511 120.035 83.2502C119.983 83.3623 119.94 83.4873 119.919 83.6252C119.901 83.776 119.888 83.9312 119.888 84.0907C119.888 84.2803 119.901 84.4527 119.919 84.6079C119.94 84.7674 119.983 84.901 120.035 85.0087C120.086 85.1251 120.164 85.2113 120.263 85.2803C120.349 85.3406 120.469 85.3751 120.616 85.3751C120.762 85.3751 120.874 85.3406 120.973 85.2803C121.059 85.2242 121.132 85.1294 121.192 85.0217C121.239 84.9182 121.287 84.7803 121.304 84.6294C121.334 84.47 121.347 84.2932 121.347 84.1122C121.347 83.9527 121.338 83.7976 121.317 83.6553C121.291 83.5174 121.252 83.3795 121.192 83.2674C121.145 83.1554 121.059 83.0649 120.973 83.0045C120.874 82.9312 120.762 82.9011 120.616 82.9011V82.8968Z" fill="#2B2A28"/>
<path fill-rule="evenodd" clip-rule="evenodd" d="M125.284 85.0777L125.361 84.7587L126.071 82.5735H126.558L125.155 87H124.643L125.116 85.4914L124.875 85.2802L124.028 82.5735H124.565L125.155 84.6898L125.258 85.0777H125.284Z" fill="#2B2A28"/>
<path fill-rule="evenodd" clip-rule="evenodd" d="M128.868 84.2889H127.53V85.694H127.035V82.5735H127.53V83.8708H128.868V82.5735H129.389V85.694H128.868V84.2889Z" fill="#2B2A28"/>
<path fill-rule="evenodd" clip-rule="evenodd" d="M131.884 83.4053L131.587 83.9398L130.55 85.694H130.09V82.5735H130.55V84.8579L130.585 84.8794L130.912 84.3062L131.914 82.5735H132.37V85.694H131.914V83.4053H131.884Z" fill="#2B2A28"/>
<path fill-rule="evenodd" clip-rule="evenodd" d="M135.46 84.7889C135.46 85.0518 135.374 85.2673 135.206 85.4397C135.025 85.6164 134.78 85.694 134.457 85.694H133.145V82.5735H134.397C134.672 82.5735 134.896 82.6424 135.072 82.7717C135.244 82.8924 135.335 83.0864 135.335 83.3536C135.335 83.4959 135.305 83.6252 135.24 83.7545C135.167 83.8881 135.051 83.9829 134.892 84.0432C135.09 84.095 135.24 84.1769 135.326 84.3018C135.412 84.4312 135.455 84.5949 135.455 84.7846L135.46 84.7889ZM134.836 83.3967C134.836 83.3148 134.818 83.2545 134.78 83.2028C134.75 83.151 134.711 83.1166 134.668 83.0821C134.616 83.0605 134.565 83.039 134.509 83.0261C134.457 83.0217 134.405 83.0088 134.375 83.0088H133.631V83.8536H134.349C134.668 83.8536 134.836 83.6941 134.836 83.3967ZM134.969 84.7846C134.969 84.5993 134.913 84.4743 134.81 84.3924C134.702 84.3105 134.556 84.2631 134.362 84.2631H133.627V85.2716H134.405C134.479 85.2716 134.539 85.263 134.603 85.2501C134.672 85.2328 134.737 85.207 134.784 85.1725C134.84 85.1208 134.879 85.0734 134.913 85.013C134.952 84.9484 134.969 84.8751 134.969 84.7889V84.7846Z" fill="#2B2A28"/>
<path fill-rule="evenodd" clip-rule="evenodd" d="M136.565 84.2501C136.565 84.3838 136.578 84.5044 136.587 84.6381C136.595 84.776 136.638 84.8967 136.699 85.0044C136.75 85.1079 136.841 85.1984 136.948 85.2587C137.052 85.3234 137.202 85.3665 137.396 85.3665C137.538 85.3665 137.68 85.3449 137.83 85.3234C137.981 85.2975 138.131 85.2501 138.299 85.1854L138.433 85.5561C138.299 85.6208 138.136 85.6725 137.964 85.7285C137.796 85.7802 137.594 85.8018 137.387 85.8018C137.107 85.8018 136.884 85.7587 136.712 85.6768C136.531 85.5992 136.393 85.4828 136.29 85.3363C136.187 85.1898 136.114 85.013 136.079 84.8148C136.045 84.6165 136.019 84.4053 136.019 84.1726C136.019 84.0389 136.036 83.8622 136.058 83.6726C136.083 83.4743 136.144 83.2933 136.221 83.1252C136.311 82.9485 136.432 82.7933 136.595 82.677C136.755 82.5433 136.97 82.4873 137.249 82.4873C137.538 82.4873 137.77 82.539 137.938 82.6382C138.093 82.733 138.218 82.8623 138.299 83.0218C138.39 83.1942 138.433 83.3752 138.458 83.595C138.476 83.8105 138.484 84.0346 138.484 84.2631H136.57L136.565 84.2501ZM137.249 82.8968C137.133 82.8968 137.026 82.9312 136.944 82.9873C136.858 83.0519 136.789 83.1209 136.733 83.2071C136.669 83.2933 136.63 83.401 136.604 83.5131C136.578 83.6166 136.565 83.7243 136.565 83.8278H137.934C137.934 83.6898 137.921 83.5691 137.899 83.4614C137.878 83.3493 137.848 83.2502 137.792 83.1597C137.736 83.0778 137.675 83.0175 137.581 82.9657C137.49 82.914 137.379 82.8925 137.249 82.8925V82.8968Z" fill="#2B2A28"/>
<path fill-rule="evenodd" clip-rule="evenodd" d="M139.508 82.5735L139.629 82.8967L139.951 82.6942C140.154 82.5606 140.33 82.483 140.481 82.483C140.692 82.483 140.859 82.5304 140.997 82.6295C141.13 82.733 141.238 82.8536 141.315 83.0088C141.393 83.164 141.449 83.3493 141.47 83.5476C141.5 83.7502 141.513 83.9484 141.513 84.1639C141.513 84.3363 141.5 84.526 141.47 84.7156C141.444 84.9053 141.393 85.0863 141.307 85.2458C141.225 85.4052 141.113 85.5389 140.958 85.638C140.816 85.7501 140.623 85.7932 140.39 85.7932C140.291 85.7932 140.171 85.7759 140.038 85.7285C139.896 85.6854 139.754 85.6035 139.629 85.4914V87H139.121V82.5735H139.5H139.508ZM139.637 85.0949C139.741 85.1682 139.853 85.2285 139.977 85.2889C140.111 85.3535 140.253 85.3794 140.386 85.3794C140.532 85.3794 140.64 85.3363 140.722 85.2501C140.808 85.1682 140.855 85.0518 140.898 84.9311C140.941 84.8104 140.963 84.6725 140.963 84.5303C140.963 84.3924 140.976 84.2803 140.976 84.1769C140.976 83.97 140.963 83.8062 140.95 83.651C140.924 83.5045 140.898 83.3752 140.851 83.289C140.803 83.1812 140.747 83.1079 140.666 83.0519C140.584 83.0002 140.485 82.97 140.356 82.97C140.296 82.97 140.223 82.9916 140.149 83.0045C140.085 83.0304 140.016 83.0648 139.956 83.0907C139.896 83.1252 139.831 83.164 139.775 83.2028C139.723 83.2459 139.663 83.289 139.625 83.3235V85.1035L139.637 85.0949Z" fill="#2B2A28"/>
<path fill-rule="evenodd" clip-rule="evenodd" d="M143.368 85.7932C142.976 85.7932 142.675 85.6552 142.451 85.3708C142.236 85.0949 142.133 84.7113 142.133 84.2329C142.133 83.9613 142.163 83.72 142.219 83.5174C142.288 83.2933 142.374 83.0993 142.481 82.9528C142.589 82.7976 142.727 82.6769 142.89 82.595C143.049 82.5175 143.234 82.483 143.428 82.483C143.617 82.483 143.798 82.5002 143.961 82.5304C144.134 82.5692 144.284 82.6252 144.4 82.6985L144.28 83.0605C144.177 83.0347 144.047 83.0002 143.91 82.9657C143.768 82.9355 143.613 82.914 143.458 82.914C143.191 82.914 142.98 83.0304 142.864 83.2459C142.739 83.4614 142.675 83.7631 142.675 84.1294C142.675 84.276 142.684 84.4312 142.696 84.5691C142.722 84.7156 142.757 84.8492 142.817 84.957C142.864 85.082 142.95 85.1639 143.036 85.2415C143.14 85.3147 143.264 85.3578 143.419 85.3578C143.578 85.3578 143.742 85.3277 143.884 85.2975C144.039 85.2587 144.177 85.2199 144.297 85.1639L144.426 85.5432C144.297 85.6078 144.146 85.6595 143.987 85.7156C143.815 85.7673 143.613 85.7888 143.363 85.7888L143.368 85.7932Z" fill="#2B2A28"/>
<path fill-rule="evenodd" clip-rule="evenodd" d="M146.689 83.4053L146.397 83.9398L145.347 85.694H144.886V82.5735H145.347V84.8579L145.377 84.8794L145.713 84.3062L146.715 82.5735H147.171V85.694H146.715V83.4053H146.689Z" fill="#2B2A28"/>
<path fill-rule="evenodd" clip-rule="evenodd" d="M149.039 85.694H148.539V82.9916H147.688V82.5735H149.921V82.9916H149.039V85.694Z" fill="#2B2A28"/>
<path fill-rule="evenodd" clip-rule="evenodd" d="M150.738 84.2501C150.738 84.3838 150.742 84.5044 150.755 84.6381C150.768 84.776 150.803 84.8967 150.867 85.0044C150.923 85.1079 151.009 85.1984 151.117 85.2587C151.229 85.3234 151.371 85.3665 151.573 85.3665C151.71 85.3665 151.848 85.3449 151.994 85.3234C152.145 85.2975 152.304 85.2501 152.463 85.1854L152.61 85.5561C152.472 85.6208 152.313 85.6725 152.136 85.7285C151.964 85.7802 151.771 85.8018 151.547 85.8018C151.272 85.8018 151.052 85.7587 150.871 85.6768C150.695 85.5992 150.557 85.4828 150.458 85.3363C150.355 85.1898 150.286 85.013 150.248 84.8148C150.209 84.6165 150.192 84.4053 150.192 84.1726C150.192 84.0389 150.196 83.8622 150.222 83.6726C150.252 83.4743 150.308 83.2933 150.385 83.1252C150.484 82.9485 150.605 82.7933 150.76 82.677C150.927 82.5433 151.143 82.4873 151.414 82.4873C151.702 82.4873 151.93 82.539 152.098 82.6382C152.257 82.733 152.373 82.8623 152.463 83.0218C152.545 83.1942 152.601 83.3752 152.623 83.595C152.631 83.8105 152.644 84.0346 152.644 84.2631H150.734L150.738 84.2501ZM151.418 82.8968C151.302 82.8968 151.203 82.9312 151.112 82.9873C151.035 83.0519 150.958 83.1209 150.91 83.2071C150.85 83.2933 150.803 83.401 150.781 83.5131C150.755 83.6166 150.738 83.7243 150.738 83.8278H152.106C152.106 83.6898 152.093 83.5691 152.076 83.4614C152.063 83.3493 152.02 83.2502 151.973 83.1597C151.917 83.0778 151.844 83.0175 151.758 82.9657C151.667 82.914 151.551 82.8925 151.422 82.8925L151.418 82.8968Z" fill="#2B2A28"/>
<path fill-rule="evenodd" clip-rule="evenodd" d="M154.382 85.694H153.875V82.9916H153.036V82.5735H155.251V82.9916H154.382V85.694Z" fill="#2B2A28"/>
<path fill-rule="evenodd" clip-rule="evenodd" d="M158.117 85.6682C158.048 85.6897 157.975 85.7156 157.893 85.7414C157.82 85.763 157.747 85.7759 157.674 85.7759C157.575 85.7759 157.51 85.7544 157.459 85.7199C157.407 85.6897 157.377 85.6165 157.33 85.5001L157.304 85.3837L156.964 85.5992C156.861 85.6725 156.775 85.7199 156.701 85.7458C156.628 85.7759 156.559 85.7802 156.495 85.7802C156.293 85.7802 156.125 85.7544 156.009 85.6854C155.893 85.6165 155.806 85.5432 155.742 85.4441C155.677 85.3535 155.643 85.2501 155.634 85.151C155.613 85.0389 155.6 84.9441 155.6 84.8622C155.6 84.6725 155.643 84.5087 155.725 84.3622C155.815 84.2286 155.931 84.1122 156.082 84.0303C156.241 83.9441 156.422 83.8795 156.624 83.8321C156.831 83.7933 157.054 83.776 157.299 83.7717V83.5217C157.299 83.3407 157.261 83.1942 157.179 83.0864C157.102 82.9916 156.955 82.9399 156.723 82.9399C156.559 82.9399 156.422 82.9528 156.28 82.9916C156.151 83.0261 156.026 83.0605 155.914 83.1036L155.794 82.7545C155.94 82.6726 156.095 82.5994 156.271 82.5563C156.439 82.5045 156.615 82.4916 156.787 82.4916C157.166 82.4916 157.424 82.5735 157.579 82.7416C157.734 82.9054 157.807 83.1295 157.807 83.4097V85.3492H158.113V85.6725L158.117 85.6682ZM157.308 84.1338C157.205 84.1338 157.08 84.1381 156.942 84.1639C156.796 84.1769 156.671 84.207 156.542 84.2588C156.422 84.3062 156.318 84.3838 156.232 84.47C156.151 84.5562 156.112 84.6725 156.112 84.8277C156.112 84.9915 156.138 85.1122 156.207 85.207C156.271 85.3018 156.383 85.3406 156.547 85.3406C156.602 85.3406 156.658 85.3277 156.732 85.3018C156.8 85.2803 156.878 85.2458 156.947 85.2113C157.02 85.1682 157.093 85.1251 157.158 85.0863C157.218 85.0475 157.274 85.0044 157.312 84.9613V84.1338H157.308Z" fill="#2B2A28"/>
<path fill-rule="evenodd" clip-rule="evenodd" d="M0.00100669 23.4212L0.814197 20.8395H29.6459L28.9618 23.5893C27.9033 23.9126 26.7416 23.9902 25.7821 24.5419C24.3709 25.3522 23.8159 25.8866 24.5774 28.1581L43.3927 60.0358L34.4476 75.673C30.6398 82.6554 25.6918 86.6767 19.8618 85.9009C16.6477 85.6725 11.717 81.5218 11.4545 77.397L12.827 75.3238C15.8948 77.8582 24.0654 77.0824 27.7226 74.9359C31.2378 72.8757 32.4081 69.5741 29.0779 64.4063C23.1102 54.3594 15.9593 41.7824 10.1852 31.632C8.50723 28.6796 6.57107 25.2918 5.01353 24.8479L-0.0032959 23.4299L0.00100669 23.4212Z" fill="#2B2A28"/>
<path fill-rule="evenodd" clip-rule="evenodd" d="M54.261 7.46946C54.4159 4.82735 54.5708 2.31885 54.7171 0L54.9451 0.146544C55.0183 2.35333 55.0398 4.74545 55.2248 7.24102C56.0208 18.0681 56.137 18.8008 66.5191 20.0981C71.6091 20.7317 78.192 20.6886 83.424 20.8266L83.6865 21.0248C81.2082 21.0852 78.7084 21.1283 76.2172 21.2015C71.1272 21.3265 66.0415 21.555 61.0204 22.2877C57.7203 22.7575 56.5973 25.9987 55.9089 28.6667C54.9494 32.4122 55.1775 35.9249 55.0269 39.7782L54.6009 40.1877C54.3428 36.037 54.2438 31.0329 53.3403 27.0202C51.7913 20.0981 47.6135 21.5851 38.307 21.0162V20.8826C43.5519 20.7231 44.0897 20.7835 47.1747 20.3783C54.1836 19.4258 53.9125 13.1804 54.261 7.47377V7.46946Z" fill="#2B2A28"/>
<path fill-rule="evenodd" clip-rule="evenodd" d="M61.7604 60.1737H60.1039V50.0923L56.5414 60.1737H54.5579V45.5969H56.2101V55.6998L59.7382 45.5969H61.7604V60.1737Z" fill="#2B2A28"/>
<path fill-rule="evenodd" clip-rule="evenodd" d="M68.0551 60.1737V55.3809H65.0777V60.1737H63.2836V49.5493H65.0777V53.8594H68.0551V49.5493H69.8235V60.1737H68.0551Z" fill="#2B2A28"/>
<path fill-rule="evenodd" clip-rule="evenodd" d="M76.1569 60.1737V55.3809H73.1881V60.1737H71.3896V49.5493H73.1881V53.8594H76.1569V49.5493H77.9296V60.1737H76.1569Z" fill="#2B2A28"/>
<path fill-rule="evenodd" clip-rule="evenodd" d="M82.8991 60.3936C82.0041 60.3936 81.3071 60.2384 80.8166 59.9453C80.3433 59.6522 79.9733 59.2428 79.7582 58.7342C79.5258 58.2385 79.3924 57.6523 79.3494 56.9972C79.315 56.3377 79.2892 55.6438 79.2892 54.9154C79.2892 54.174 79.3193 53.4801 79.3494 52.8034C79.3924 52.131 79.5258 51.5449 79.7582 51.032C79.9733 50.5234 80.3433 50.1225 80.8295 49.8251C81.3243 49.5277 82.0084 49.3726 82.8991 49.3726C83.7983 49.3726 84.4867 49.5277 84.9815 49.8251C85.4634 50.1225 85.8205 50.5234 86.0443 51.032C86.2766 51.5449 86.4143 52.131 86.4444 52.8034C86.4917 53.4801 86.5132 54.174 86.5132 54.9154C86.5132 55.6438 86.4917 56.3334 86.4444 56.9972C86.4186 57.6523 86.2809 58.2385 86.0443 58.7342C85.8205 59.2428 85.4634 59.6479 84.9815 59.9453C84.4867 60.2427 83.7983 60.3936 82.8991 60.3936ZM82.8991 58.9454C83.325 58.9454 83.652 58.8592 83.8887 58.7126C84.121 58.5531 84.2974 58.3118 84.4179 57.9713C84.5297 57.6394 84.5943 57.2299 84.6201 56.7299C84.6416 56.23 84.6545 55.6266 84.6545 54.9197C84.6545 54.2085 84.6373 53.6008 84.6201 53.1008C84.5943 52.5793 84.534 52.1655 84.4179 51.8336C84.2974 51.4931 84.121 51.2561 83.8887 51.0923C83.6477 50.9414 83.3207 50.8552 82.8991 50.8552C82.4645 50.8552 82.1246 50.9414 81.9009 51.0923C81.6556 51.2518 81.4792 51.4931 81.3759 51.8336C81.2426 52.1655 81.1823 52.5793 81.1608 53.1008C81.1393 53.6051 81.1393 54.2085 81.1393 54.9197C81.1393 55.6266 81.1436 56.23 81.1608 56.7299C81.1823 57.2299 81.2426 57.6394 81.3759 57.9713C81.4792 58.3118 81.6556 58.5531 81.9009 58.7126C82.1246 58.8635 82.4645 58.9454 82.8991 58.9454Z" fill="#2B2A28"/>
<path fill-rule="evenodd" clip-rule="evenodd" d="M90.945 49.3769H91.2591C92.2185 49.4243 92.8811 49.6786 93.2469 50.1613C93.5653 50.5147 93.7546 51.0363 93.832 51.7431C93.7933 52.7732 93.4319 53.493 92.7392 53.8766V53.9197C93.3415 53.9628 93.7933 54.2559 94.0687 54.7731C94.2106 55.1395 94.2881 55.5447 94.2881 56.0102V57.3032C94.2881 59.2212 93.4577 60.178 91.8055 60.178H87.9289C87.8858 60.178 87.8557 60.1479 87.8557 60.0789V55.1481C87.8815 52.7776 88.1526 51.2819 88.6689 50.6613C89.2455 49.8984 89.9984 49.476 90.9364 49.3812L90.945 49.3769ZM89.6198 52.9586L89.6413 53.5103L90.4631 53.5491C91.087 53.5318 91.5 53.4198 91.7151 53.2172C92.0593 52.9327 92.253 52.4974 92.2745 51.9069C92.2271 51.6483 92.1282 51.4414 91.9991 51.269C91.8743 51.1095 91.5861 51.0147 91.1386 50.9845L90.8288 51.0276C90.0242 51.2518 89.6198 51.8983 89.6198 52.9629V52.9586ZM91.4742 58.8074C91.8743 58.8074 92.1411 58.6781 92.2702 58.398C92.4036 58.1221 92.481 57.7127 92.5025 57.1566C92.5197 56.8722 92.5068 56.6265 92.4767 56.4153C92.4466 56.2127 92.3777 56.0274 92.2788 55.8895C92.1841 55.7472 92.0421 55.6352 91.8571 55.5662C91.6764 55.4972 91.4398 55.4585 91.1601 55.4585H89.6456V58.8031H91.4699L91.4742 58.8074Z" fill="#2B2A28"/>
<path fill-rule="evenodd" clip-rule="evenodd" d="M98.1775 49.3769H98.9391C100.286 49.3769 101.133 49.9027 101.478 50.9414C101.645 51.3725 101.731 51.9931 101.731 52.7991V58.1825C101.731 59.1135 101.245 59.7772 100.286 60.1781C99.9072 60.2987 99.3994 60.3763 98.7627 60.3979C97.1922 60.3979 96.2026 60.0358 95.8111 59.3074C95.5228 58.829 95.3851 58.2213 95.3851 57.4627V57.0144C95.3851 55.5791 95.7422 54.6697 96.4737 54.2904C97.1406 53.9111 98.298 53.7085 99.9502 53.7085V52.3379C99.9502 51.3552 99.55 50.8509 98.7584 50.8035H98.6035C97.6956 50.8035 97.2352 51.3638 97.2352 52.4758V52.6784C96.2586 52.5836 95.7422 52.5189 95.6691 52.5103C95.6906 51.2949 95.9316 50.4372 96.435 49.9286C96.8222 49.5837 97.4073 49.4027 98.1775 49.3769ZM97.1535 57.3032C97.1535 58.1092 97.3428 58.6221 97.7042 58.8247C97.9581 58.9497 98.2851 59.0057 98.7153 59.0057C99.421 58.9971 99.8383 58.6997 99.9502 58.148C99.976 57.6221 99.9889 57.1868 99.9889 56.8291V54.7947C98.4658 54.7947 97.5881 55.0619 97.3729 55.5964C97.2309 55.8895 97.1535 56.4584 97.1535 57.2989V57.3032Z" fill="#2B2A28"/>
<path fill-rule="evenodd" clip-rule="evenodd" d="M109.928 61.3892V60.1737H103.384V49.5493H105.182V58.6307H108.155V49.5493H109.928V58.6479H111.451V61.3892H109.928Z" fill="#2B2A28"/>
<path fill-rule="evenodd" clip-rule="evenodd" d="M119.174 60.1737H117.509V52.4931L114.338 60.1737H112.359V49.5493H114.015V57.2601L117.161 49.5493H119.174V60.1737Z" fill="#2B2A28"/>
<path fill-rule="evenodd" clip-rule="evenodd" d="M124.053 60.3936C123.154 60.3936 122.461 60.2384 121.984 59.9453C121.498 59.6522 121.149 59.2428 120.921 58.7342C120.689 58.2385 120.551 57.6523 120.517 56.9972C120.478 56.3377 120.456 55.6438 120.456 54.9154C120.456 54.174 120.478 53.4801 120.517 52.8034C120.551 52.131 120.684 51.5449 120.921 51.032C121.145 50.5234 121.498 50.1225 121.988 49.8251C122.483 49.5277 123.163 49.3726 124.053 49.3726C124.953 49.3726 125.645 49.5277 126.14 49.8251C126.626 50.1225 126.975 50.5234 127.211 51.032C127.435 51.5449 127.564 52.131 127.612 52.8034C127.646 53.4801 127.668 54.174 127.668 54.9154C127.668 55.6438 127.646 56.3334 127.612 56.9972C127.569 57.6523 127.435 58.2385 127.211 58.7342C126.975 59.2428 126.626 59.6479 126.14 59.9453C125.65 60.2427 124.953 60.3936 124.053 60.3936ZM124.053 58.9454C124.479 58.9454 124.824 58.8592 125.052 58.7126C125.284 58.5531 125.465 58.3118 125.581 57.9713C125.701 57.6394 125.766 57.2299 125.783 56.7299C125.809 56.23 125.817 55.6266 125.817 54.9197C125.817 54.2085 125.809 53.6008 125.783 53.1008C125.766 52.5793 125.701 52.1655 125.581 51.8336C125.469 51.4931 125.284 51.2561 125.052 51.0923C124.824 50.9414 124.484 50.8552 124.053 50.8552C123.623 50.8552 123.288 50.9414 123.055 51.0923C122.827 51.2518 122.655 51.4931 122.526 51.8336C122.414 52.1655 122.345 52.5793 122.328 53.1008C122.311 53.6051 122.294 54.2085 122.294 54.9197C122.294 55.6266 122.307 56.23 122.328 56.7299C122.345 57.2299 122.418 57.6394 122.526 57.9713C122.651 58.3118 122.827 58.5531 123.055 58.7126C123.288 58.8635 123.623 58.9454 124.053 58.9454Z" fill="#2B2A28"/>
<path fill-rule="evenodd" clip-rule="evenodd" d="M133.807 60.1737V55.3809H130.83V60.1737H129.036V49.5493H130.83V53.8594H133.807V49.5493H135.58V60.1737H133.807Z" fill="#2B2A28"/>
<path fill-rule="evenodd" clip-rule="evenodd" d="M141.905 60.1737V55.3809H138.936V60.1737H137.133V49.5493H138.936V53.8594H141.905V49.5493H143.682V60.1737H141.905Z" fill="#2B2A28"/>
<path fill-rule="evenodd" clip-rule="evenodd" d="M147.748 49.3769H148.505C149.873 49.3769 150.716 49.9027 151.056 50.9414C151.22 51.3725 151.31 51.9931 151.31 52.7991V58.1825C151.31 59.1135 150.833 59.7772 149.865 60.1781C149.482 60.2987 148.974 60.3763 148.333 60.3979C146.767 60.3979 145.777 60.0358 145.39 59.3074C145.102 58.829 144.955 58.2213 144.955 57.4627V57.0144C144.955 55.5791 145.325 54.6697 146.048 54.2904C146.715 53.9111 147.881 53.7085 149.529 53.7085V52.3379C149.529 51.3552 149.133 50.8509 148.337 50.8035H148.178C147.274 50.8035 146.823 51.3638 146.823 52.4758V52.6784C145.837 52.5836 145.33 52.5189 145.257 52.5103C145.265 51.2949 145.523 50.4372 146.018 49.9286C146.405 49.5837 146.986 49.4027 147.756 49.3769H147.748ZM146.732 57.3032C146.732 58.1092 146.913 58.6221 147.279 58.8247C147.52 58.9497 147.868 59.0057 148.29 59.0057C148.987 58.9971 149.4 58.6997 149.52 58.148C149.542 57.6221 149.559 57.1868 149.559 56.8291V54.7947C148.032 54.7947 147.167 55.0619 146.947 55.5964C146.801 55.8895 146.728 56.4584 146.728 57.2989L146.732 57.3032Z" fill="#2B2A28"/>
<path fill-rule="evenodd" clip-rule="evenodd" d="M155.682 49.3769H156.25C157.601 49.3769 158.474 49.8467 158.883 50.7906C158.96 51.0363 158.999 51.3207 158.999 51.644V60.1737H157.403V56.0877C156.775 56.1308 156.293 56.1222 155.97 56.0662L155.458 55.9886L154.283 60.1737H152.532L154.021 55.661C153.505 55.4111 153.165 55.0706 152.984 54.6525C152.82 54.2387 152.743 53.4801 152.743 52.3681C152.743 50.3725 153.72 49.3726 155.682 49.3726V49.3769ZM154.524 52.4931C154.524 53.7042 154.705 54.3982 155.062 54.5878C155.484 54.8464 156.258 54.9714 157.403 54.9714V51.769C157.33 51.3423 157.175 51.0794 156.882 50.9759C156.602 50.8768 156.284 50.8294 155.931 50.8294C155.036 50.8294 154.567 51.269 154.542 52.1526L154.524 52.4888V52.4931Z" fill="#2B2A28"/>
<path fill-rule="evenodd" clip-rule="evenodd" d="M60.8956 74.9316H59.3295V67.682L56.3478 74.9316H54.4675V64.9149H56.038V72.1818L58.9939 64.9149H60.8956V74.9316Z" fill="#2B2A28"/>
<path fill-rule="evenodd" clip-rule="evenodd" d="M66.7816 74.9316V70.4146H63.9892V74.9316H62.2939V64.9149H63.9892V68.9664H66.7816V64.9149H68.4596V74.9316H66.7816Z" fill="#2B2A28"/>
<path fill-rule="evenodd" clip-rule="evenodd" d="M71.7252 64.7468H71.8155C72.8611 64.7468 73.5151 65.0399 73.7818 65.6347H73.8205V64.8201H75.5545V65.6347H75.6018C75.9245 65.0399 76.5183 64.7468 77.3745 64.7468H77.7058C79.1299 64.7468 79.8399 66.0054 79.8399 68.5139V70.7594C79.8399 72.9274 79.3967 74.3153 78.5147 74.9359C78.3297 75.0696 77.9768 75.1385 77.439 75.1385C76.6947 75.1385 76.0536 74.7722 75.5545 74.0437L75.5803 77.7591H73.8205V74.0437C73.3344 74.7722 72.7105 75.1385 71.9274 75.1385H71.6434C70.7829 75.1385 70.159 74.4748 69.7976 73.1472C69.6341 72.5568 69.5524 71.8628 69.5524 71.0611V68.419C69.5524 65.9752 70.2795 64.7511 71.7252 64.7511V64.7468ZM71.2433 69.5569C71.2433 71.9404 71.4627 73.255 71.8887 73.5093C71.936 73.5783 72.1038 73.6472 72.3706 73.7119C72.9256 73.7119 73.4204 73.3498 73.855 72.6214V67.1648C73.855 66.7165 73.4892 66.32 72.7191 65.9838L72.4308 65.9622C71.8844 65.9622 71.5488 66.3933 71.4111 67.2596C71.3207 67.738 71.2691 68.5052 71.2433 69.5569ZM75.5115 67.126V72.5266C75.6793 73.0352 76.0063 73.3886 76.4968 73.5955C76.6258 73.6515 76.7764 73.686 76.9313 73.7119C77.4175 73.7119 77.7445 73.3886 77.9123 72.7507C78.0285 72.2119 78.093 71.4921 78.093 70.5913V68.9923C78.093 66.9794 77.7144 65.9666 76.97 65.9666H76.927C76.5054 65.9666 76.0665 66.2424 75.6405 66.8157C75.5545 66.9407 75.5072 67.0441 75.5072 67.1303L75.5115 67.126Z" fill="#2B2A28"/>
<path fill-rule="evenodd" clip-rule="evenodd" d="M81.036 78.5823V67.001C81.036 66.7639 81.0705 66.5484 81.1264 66.3502C81.6083 65.2813 82.5549 64.7468 83.9618 64.7468H84.0005C85.4763 64.7468 86.4014 65.0485 86.7671 65.6692C87.1113 66.0829 87.2834 67.3674 87.2834 69.4879C87.2834 71.6128 87.1457 72.9878 86.8962 73.5998C86.5735 74.6256 85.713 75.1342 84.3146 75.1342H84.1124C83.4627 75.104 83.0109 74.742 82.77 74.0394H82.7097V78.5823H81.0317H81.036ZM82.77 72.6774C82.9421 73.2162 83.2906 73.5265 83.8198 73.5826C84.4265 73.5826 84.8223 73.4877 84.9815 73.311C85.3386 72.7852 85.5366 71.8499 85.5366 70.475V68.5742C85.5366 67.7725 85.4806 67.1346 85.3644 66.6476C85.2655 66.2166 84.8955 66.0097 84.2372 66.0097H84.0048C83.1486 66.1131 82.7141 66.4665 82.7141 67.057V72.3025C82.7399 72.4404 82.7485 72.574 82.7743 72.6817L82.77 72.6774Z" fill="#2B2A28"/>
<path fill-rule="evenodd" clip-rule="evenodd" d="M91.1987 64.7468H91.9172C93.1865 64.7468 93.9954 65.2381 94.3095 66.2252C94.4687 66.6303 94.5504 67.2122 94.5504 67.9751V73.0481C94.5504 73.9188 94.103 74.548 93.1865 74.9359C92.8337 75.0394 92.3518 75.1084 91.7537 75.1385C90.2693 75.1385 89.3443 74.798 88.9786 74.0998C88.6989 73.6601 88.5698 73.0869 88.5698 72.3757V71.949C88.5698 70.6 88.9183 69.7379 89.6067 69.3802C90.2306 69.0095 91.3235 68.8328 92.8853 68.8328V67.5355C92.8853 66.6217 92.5067 66.1347 91.758 66.0916H91.6075C90.7555 66.0916 90.321 66.6217 90.321 67.6691V67.8673C89.4002 67.7725 88.9097 67.7165 88.8452 67.7079C88.8581 66.5657 89.099 65.7511 89.5637 65.264C89.938 64.9451 90.4845 64.777 91.203 64.7511L91.1987 64.7468ZM90.2435 72.2119C90.2435 72.9748 90.4156 73.4576 90.7641 73.6515C90.9922 73.7636 91.3192 73.8239 91.715 73.8239C92.3776 73.8067 92.7648 73.5438 92.881 73.0093C92.9068 72.5223 92.9154 72.1085 92.9154 71.7723V69.8629C91.4698 69.8629 90.6566 70.1129 90.4458 70.6172C90.3124 70.893 90.2435 71.4232 90.2435 72.2206V72.2119Z" fill="#2B2A28"/>
<path fill-rule="evenodd" clip-rule="evenodd" d="M102.05 71.5266C102.02 71.9663 101.977 72.4145 101.908 72.8455C101.843 73.2722 101.71 73.6645 101.499 74.0006C101.31 74.3325 101.009 74.6127 100.63 74.8153C100.256 75.0221 99.7393 75.1342 99.1026 75.1342C98.3281 75.1342 97.73 74.992 97.2955 74.7204C96.8652 74.4489 96.5511 74.0696 96.3489 73.5826C96.1424 73.0955 96.0219 72.5524 95.9832 71.9275C95.9488 71.2939 95.9272 70.6301 95.9272 69.9319C95.9272 69.225 95.9488 68.5483 95.9832 67.9191C96.0219 67.2898 96.1553 66.7424 96.3618 66.2769C96.5726 65.8071 96.9039 65.4407 97.3514 65.1649C97.8075 64.8847 98.4314 64.7468 99.2488 64.7468C99.7652 64.7468 100.187 64.8028 100.531 64.9235C100.862 65.0356 101.138 65.2338 101.344 65.4924C101.546 65.7424 101.706 66.0829 101.8 66.4924C101.904 66.9191 101.964 67.4277 101.99 68.0268L100.565 68.2466C100.544 67.8587 100.51 67.5441 100.462 67.2682C100.423 66.9967 100.35 66.7769 100.256 66.6174C100.157 66.445 100.028 66.3329 99.8684 66.2467C99.7049 66.1648 99.5027 66.126 99.2445 66.126C98.8487 66.126 98.5389 66.2079 98.3238 66.376C98.113 66.5571 97.9538 66.8113 97.8548 67.1432C97.7429 67.4708 97.6827 67.8759 97.6655 68.3414C97.6483 68.8112 97.6397 69.3328 97.6397 69.9319C97.6397 70.5181 97.6483 71.0568 97.6655 71.5309C97.6784 72.0007 97.7386 72.4016 97.829 72.7248C97.9193 73.0697 98.0613 73.3153 98.2679 73.492C98.4615 73.6774 98.7325 73.7636 99.0897 73.7636C99.3994 73.7636 99.6533 73.7119 99.8426 73.5955C100.023 73.4834 100.183 73.3326 100.294 73.1257C100.398 72.9317 100.484 72.6774 100.527 72.3843C100.561 72.0869 100.596 71.7551 100.621 71.3844L102.041 71.5309L102.05 71.5266Z" fill="#2B2A28"/>
<path fill-rule="evenodd" clip-rule="evenodd" d="M104.903 74.9316V66.3458H102.614V64.9149H108.921V66.3458H106.585V74.9316H104.903Z" fill="#2B2A28"/>
<path fill-rule="evenodd" clip-rule="evenodd" d="M109.721 78.5823V67.001C109.721 66.7639 109.76 66.5484 109.812 66.3502C110.294 65.2813 111.245 64.7468 112.647 64.7468H112.695C114.166 64.7468 115.082 65.0485 115.457 65.6692C115.801 66.0829 115.973 67.3674 115.973 69.4879C115.973 71.6128 115.848 72.9878 115.59 73.5998C115.259 74.6256 114.398 75.1342 113.009 75.1342H112.806C112.152 75.104 111.709 74.742 111.46 74.0394H111.404V78.5823H109.721ZM111.46 72.6774C111.632 73.2162 111.976 73.5265 112.51 73.5826C113.12 73.5826 113.508 73.4877 113.658 73.311C114.033 72.7852 114.218 71.8499 114.218 70.475V68.5742C114.218 67.7725 114.162 67.1346 114.054 66.6476C113.947 66.2166 113.577 66.0097 112.927 66.0097H112.695C111.83 66.1131 111.404 66.4665 111.404 67.057V72.3025C111.417 72.4404 111.438 72.574 111.46 72.6817V72.6774Z" fill="#2B2A28"/>
<path fill-rule="evenodd" clip-rule="evenodd" d="M116.941 64.9149H118.851L120.405 72.199L121.803 64.9149H123.58L120.977 75.6644C120.865 76.1298 120.732 76.5695 120.585 76.966C120.422 77.3669 120.237 77.7117 120.009 78.0004C119.789 78.3022 119.51 78.5349 119.174 78.7073C118.843 78.884 118.443 78.9745 117.974 78.9745C117.72 78.9745 117.492 78.9487 117.281 78.9099C117.083 78.8668 116.885 78.772 116.687 78.6556C116.812 78.4142 116.941 78.1729 117.057 77.9358C117.173 77.6901 117.298 77.4401 117.419 77.1988C117.595 77.341 117.772 77.4013 117.969 77.4013C118.223 77.4013 118.499 77.2203 118.791 76.8539C119.084 76.4833 119.329 75.8152 119.54 74.8497L116.941 64.9192V64.9149Z" fill="#2B2A28"/>
<path fill-rule="evenodd" clip-rule="evenodd" d="M128.846 74.9316L127.547 69.4319L126.2 71.2422V74.9316H124.471V64.9149H126.2V69.2078L128.64 64.9149H130.666L128.653 67.7897L130.903 74.9316H128.846Z" fill="#2B2A28"/>
<path fill-rule="evenodd" clip-rule="evenodd" d="M133.386 74.9316V66.3458H131.105V64.9149H137.404V66.3458H135.059V74.9316H133.386Z" fill="#2B2A28"/>
<path fill-rule="evenodd" clip-rule="evenodd" d="M137.65 64.9149H139.556L141.105 72.199L142.503 64.9149H144.276L141.668 75.6644C141.569 76.1298 141.432 76.5695 141.277 76.966C141.126 77.3669 140.945 77.7117 140.704 78.0004C140.485 78.3022 140.197 78.5349 139.87 78.7073C139.547 78.884 139.138 78.9745 138.678 78.9745C138.42 78.9745 138.183 78.9487 137.985 78.9099C137.783 78.8668 137.585 78.772 137.383 78.6556C137.503 78.4142 137.632 78.1729 137.757 77.9358C137.878 77.6901 137.998 77.4401 138.119 77.1988C138.295 77.341 138.48 77.4013 138.678 77.4013C138.927 77.4013 139.207 77.2203 139.495 76.8539C139.779 76.4833 140.038 75.8152 140.24 74.8497L137.654 64.9192L137.65 64.9149Z" fill="#2B2A28"/>
<path fill-rule="evenodd" clip-rule="evenodd" d="M145.153 78.5823V67.001C145.153 66.7639 145.188 66.5484 145.252 66.3502C145.73 65.2813 146.676 64.7468 148.092 64.7468H148.126C149.594 64.7468 150.519 65.0485 150.889 65.6692C151.237 66.0829 151.405 67.3674 151.405 69.4879C151.405 71.6128 151.28 72.9878 151.018 73.5998C150.695 74.6256 149.843 75.1342 148.445 75.1342H148.234C147.589 75.104 147.133 74.742 146.892 74.0394H146.844V78.5823H145.162H145.153ZM146.883 72.6774C147.059 73.2162 147.408 73.5265 147.941 73.5826C148.548 73.5826 148.931 73.4877 149.09 73.311C149.465 72.7852 149.654 71.8499 149.654 70.475V68.5742C149.654 67.7725 149.589 67.1346 149.486 66.6476C149.383 66.2166 149.008 66.0097 148.359 66.0097H148.122C147.257 66.1131 146.836 66.4665 146.836 67.057V72.3025C146.844 72.4404 146.857 72.574 146.883 72.6817V72.6774Z" fill="#2B2A28"/>
<path fill-rule="evenodd" clip-rule="evenodd" d="M155.32 64.7468H156.039C157.312 64.7468 158.104 65.2381 158.435 66.2252C158.59 66.6303 158.668 67.2122 158.668 67.9751V73.0481C158.668 73.9188 158.22 74.548 157.312 74.9359C156.955 75.0394 156.478 75.1084 155.875 75.1385C154.391 75.1385 153.466 74.798 153.096 74.0998C152.816 73.6601 152.674 73.0869 152.674 72.3757V71.949C152.674 70.6 153.023 69.7379 153.715 69.3802C154.344 69.0095 155.436 68.8328 156.99 68.8328V67.5355C156.99 66.6217 156.62 66.1347 155.875 66.0916H155.72C154.873 66.0916 154.438 66.6217 154.438 67.6691V67.8673C153.518 67.7725 153.023 67.7165 152.962 67.7079C152.98 66.5657 153.208 65.7511 153.677 65.264C154.047 64.9451 154.593 64.777 155.32 64.7511V64.7468ZM154.361 72.2119C154.361 72.9748 154.533 73.4576 154.873 73.6515C155.114 73.7636 155.432 73.8239 155.837 73.8239C156.504 73.8067 156.886 73.5438 156.994 73.0093C157.02 72.5223 157.037 72.1085 157.037 71.7723V69.8629C155.596 69.8629 154.77 70.1129 154.572 70.6172C154.438 70.893 154.365 71.4232 154.365 72.2206L154.361 72.2119Z" fill="#2B2A28"/>
</g>
<defs>
<clipPath id="clip0_47_1749">
<rect width="159" height="87" fill="white"/>
</clipPath>
</defs>
</svg>
